<?xml version="1.0" encoding="UTF-8"?>
<!DOCTYPE svg PUBLIC "-//W3C//DTD SVG 1.1//EN" "http://www.w3.org/Graphics/SVG/1.1/DTD/svg11.dtd">
<svg xmlns="http://www.w3.org/2000/svg" version="1.1" width="287px" height="289px" style="shape-rendering:geometricPrecision; text-rendering:geometricPrecision; image-rendering:optimizeQuality; fill-rule:evenodd; clip-rule:evenodd" xmlns:xlink="http://www.w3.org/1999/xlink">
<g><path style="opacity:0.361" fill="#a9b0c8" d="M 164.5,5.5 C 167.241,5.70732 169.574,6.70732 171.5,8.5C 168.759,8.29268 166.426,7.29268 164.5,5.5 Z"/></g>
<g><path style="opacity:1" fill="#0f267c" d="M 164.5,5.5 C 162.143,5.33669 159.81,5.50335 157.5,6C 158.654,6.9138 158.487,7.74714 157,8.5C 155.612,7.44636 154.112,7.27969 152.5,8C 154.246,8.47093 155.913,9.13759 157.5,10C 156.207,10.49 154.873,10.6567 153.5,10.5C 143.503,9.09888 134.336,11.0989 126,16.5C 125.517,17.448 125.351,18.448 125.5,19.5C 136.964,16.6082 148.63,14.9415 160.5,14.5C 159.66,13.265 158.66,12.265 157.5,11.5C 158.822,11.67 159.989,11.3366 161,10.5C 161.5,11 162,11.5 162.5,12C 161.62,13.3561 161.286,14.8561 161.5,16.5C 158.753,16.1866 156.086,16.52 153.5,17.5C 155.291,18.1698 156.958,18.8365 158.5,19.5C 155.813,19.3359 153.146,19.5026 150.5,20C 147.572,22.09 145.239,24.59 143.5,27.5C 142.193,25.7768 142.193,23.9435 143.5,22C 142.667,21.8333 141.833,21.6667 141,21.5C 137.221,22.944 133.388,24.2774 129.5,25.5C 127.166,24.1592 125.499,24.8259 124.5,27.5C 125.325,28.3857 126.325,28.719 127.5,28.5C 127.217,29.2891 126.717,29.9558 126,30.5C 125.189,41.5466 125.356,52.5466 126.5,63.5C 118.148,64.5363 109.814,64.703 101.5,64C 100.536,68.0659 100.203,72.2325 100.5,76.5C 109.167,76.5 117.833,76.5 126.5,76.5C 126.326,78.861 125.993,81.1944 125.5,83.5C 109.179,82.7166 92.8456,82.3832 76.5,82.5C 76.4225,86.8766 75.9225,91.2099 75,95.5C 73.2942,96.3079 72.4609,97.6412 72.5,99.5C 104.5,99.5 136.5,99.5 168.5,99.5C 136.003,100.332 103.336,100.832 70.5,101C 68.1955,101.895 65.8622,102.729 63.5,103.5C 69.9007,105.958 76.5674,107.124 83.5,107C 79.4463,108.941 79.7797,109.775 84.5,109.5C 84.5,108.5 84.5,107.5 84.5,106.5C 87.9615,106.566 91.2949,107.233 94.5,108.5C 97.0093,107.157 99.6759,106.657 102.5,107C 99.9102,111.306 101.244,113.806 106.5,114.5C 106.5,115.5 106.5,116.5 106.5,117.5C 104.412,116.061 102.079,115.394 99.5,115.5C 99.1667,115.5 98.8333,115.5 98.5,115.5C 96.5615,113.837 94.2282,113.171 91.5,113.5C 89.5853,113.784 87.9187,113.451 86.5,112.5C 79.3451,111.345 72.0118,111.178 64.5,112C 61.5432,112.279 58.8766,113.113 56.5,114.5C 55.4324,115.434 54.099,115.768 52.5,115.5C 50.4471,115.402 48.7804,116.069 47.5,117.5C 45.8185,119.008 43.8185,120.008 41.5,120.5C 39.2075,120.756 37.0408,120.423 35,119.5C 34.8333,119.833 34.6667,120.167 34.5,120.5C 35.376,121.251 36.376,121.751 37.5,122C 34.2744,123.855 30.941,125.521 27.5,127C 26.5939,128.699 26.2606,130.533 26.5,132.5C 24.8561,132.714 23.3561,132.38 22,131.5C 21.5,132.667 20.6667,133.5 19.5,134C 20.756,134.417 21.4226,135.25 21.5,136.5C 20.8902,137.391 20.5569,138.391 20.5,139.5C 19.9744,141.23 18.9744,142.564 17.5,143.5C 16.0937,143.973 15.427,144.973 15.5,146.5C 15.0075,148.819 14.0075,150.819 12.5,152.5C 10.32,155.381 9.32003,158.714 9.5,162.5C 9.5,162.833 9.5,163.167 9.5,163.5C 8.07619,165.515 7.40953,167.848 7.5,170.5C 7.08305,171.124 6.41638,171.457 5.5,171.5C 4.28665,171.253 3.61998,170.586 3.5,169.5C 3.82943,166.772 3.16276,164.438 1.5,162.5C 1.5,162.167 1.5,161.833 1.5,161.5C 1.5,152.5 1.5,143.5 1.5,134.5C 1.91574,129.507 2.24908,124.507 2.5,119.5C 2.20528,117.265 2.53862,115.265 3.5,113.5C 5.74116,108.1 7.40782,102.433 8.5,96.5C 8.5,96.1667 8.5,95.8333 8.5,95.5C 9.93127,94.2196 10.5979,92.5529 10.5,90.5C 11.6027,86.503 13.2694,82.8363 15.5,79.5C 16.9063,79.0269 17.573,78.0269 17.5,76.5C 17.3284,75.5084 17.6618,74.8417 18.5,74.5C 20.4077,73.5144 21.4077,71.8477 21.5,69.5C 23.7593,68.656 24.7593,66.9893 24.5,64.5C 26.2624,63.7377 27.2624,62.4044 27.5,60.5C 29.2624,59.7377 30.2624,58.4044 30.5,56.5C 32.5869,55.4154 33.9202,53.7488 34.5,51.5C 40.1667,46.5 45.5,41.1667 50.5,35.5C 53.0892,34.5806 55.0892,32.914 56.5,30.5C 58.0269,30.573 59.0269,29.9063 59.5,28.5C 61.4044,28.2624 62.7377,27.2624 63.5,25.5C 65.9893,25.7593 67.656,24.7593 68.5,22.5C 71.6587,22.4259 73.9921,21.0926 75.5,18.5C 78.5154,16.3256 81.8487,14.6589 85.5,13.5C 87.698,13.8799 89.3646,13.2132 90.5,11.5C 91.209,10.596 92.209,10.2627 93.5,10.5C 100.705,8.87179 107.705,6.87179 114.5,4.5C 131.302,-1.15442 147.969,-0.821082 164.5,5.5 Z"/></g>
<g><path style="opacity:0.89" fill="#8388b0" d="M 114.5,4.5 C 107.705,6.87179 100.705,8.87179 93.5,10.5C 100.069,7.31428 107.069,5.31428 114.5,4.5 Z"/></g>
<g><path style="opacity:0.124" fill="#f5e4df" d="M 192.5,11.5 C 190.658,11.2767 188.825,10.9434 187,10.5C 185.624,10.6842 184.791,11.3509 184.5,12.5C 183.596,11.791 183.263,10.791 183.5,9.5C 186.877,9.06786 189.877,9.73452 192.5,11.5 Z"/></g>
<g><path style="opacity:1" fill="#0d257b" d="M 164.5,5.5 C 166.426,7.29268 168.759,8.29268 171.5,8.5C 172.492,8.32842 173.158,8.66175 173.5,9.5C 173.973,10.9063 174.973,11.573 176.5,11.5C 181.248,13.8824 185.248,17.2157 188.5,21.5C 189.419,24.0892 191.086,26.0892 193.5,27.5C 193.738,29.4044 194.738,30.7377 196.5,31.5C 197.338,31.8417 197.672,32.5084 197.5,33.5C 197.427,35.0269 198.094,36.0269 199.5,36.5C 200.338,36.8417 200.672,37.5084 200.5,38.5C 200.12,40.698 200.787,42.3646 202.5,43.5C 202.41,46.1522 203.076,48.4855 204.5,50.5C 205.434,51.5676 205.768,52.901 205.5,54.5C 205.573,62.8543 205.24,71.1876 204.5,79.5C 204.59,82.1522 203.924,84.4855 202.5,86.5C 199.847,88.8475 198.513,91.8475 198.5,95.5C 198.573,97.0269 197.906,98.0269 196.5,98.5C 195.178,98.33 194.011,98.6634 193,99.5C 192.233,102.2 191.067,104.7 189.5,107C 188.207,107.49 186.873,107.657 185.5,107.5C 185.5,108.833 185.5,110.167 185.5,111.5C 181.455,113.523 177.455,115.523 173.5,117.5C 173.5,118.5 173.5,119.5 173.5,120.5C 173.158,121.338 172.492,121.672 171.5,121.5C 169.847,121.66 168.514,122.326 167.5,123.5C 164.855,125.31 161.855,126.31 158.5,126.5C 149.191,127.317 139.857,127.65 130.5,127.5C 127.495,125.723 124.162,124.723 120.5,124.5C 116.418,123.624 112.751,121.957 109.5,119.5C 108.71,118.599 107.71,117.932 106.5,117.5C 106.5,116.5 106.5,115.5 106.5,114.5C 101.244,113.806 99.9102,111.306 102.5,107C 99.6759,106.657 97.0093,107.157 94.5,108.5C 91.2949,107.233 87.9615,106.566 84.5,106.5C 84.5,107.5 84.5,108.5 84.5,109.5C 79.7797,109.775 79.4463,108.941 83.5,107C 76.5674,107.124 69.9007,105.958 63.5,103.5C 65.8622,102.729 68.1955,101.895 70.5,101C 103.336,100.832 136.003,100.332 168.5,99.5C 169.376,99.6309 170.043,99.2975 170.5,98.5C 168.581,97.3875 166.914,96.0542 165.5,94.5C 165.804,88.4229 165.304,82.4229 164,76.5C 161.707,74.1175 159.874,71.4508 158.5,68.5C 159.375,64.2127 159.708,59.8794 159.5,55.5C 158.022,55.238 156.689,55.5713 155.5,56.5C 155.017,59.7866 153.85,62.7866 152,65.5C 151.617,64.944 151.117,64.6107 150.5,64.5C 144.794,64.8288 139.128,64.4954 133.5,63.5C 134.644,52.5466 134.811,41.5466 134,30.5C 132.211,28.771 130.044,28.1043 127.5,28.5C 126.325,28.719 125.325,28.3857 124.5,27.5C 125.499,24.8259 127.166,24.1592 129.5,25.5C 133.388,24.2774 137.221,22.944 141,21.5C 141.833,21.6667 142.667,21.8333 143.5,22C 142.193,23.9435 142.193,25.7768 143.5,27.5C 144.265,27.9234 145.098,28.2568 146,28.5C 151.124,27.2296 156.291,26.2296 161.5,25.5C 161.539,22.911 160.539,20.911 158.5,19.5C 156.958,18.8365 155.291,18.1698 153.5,17.5C 156.086,16.52 158.753,16.1866 161.5,16.5C 161.286,14.8561 161.62,13.3561 162.5,12C 162,11.5 161.5,11 161,10.5C 159.989,11.3366 158.822,11.67 157.5,11.5C 155.901,11.7678 154.568,11.4345 153.5,10.5C 154.873,10.6567 156.207,10.49 157.5,10C 155.913,9.13759 154.246,8.47093 152.5,8C 154.112,7.27969 155.612,7.44636 157,8.5C 158.487,7.74714 158.654,6.9138 157.5,6C 159.81,5.50335 162.143,5.33669 164.5,5.5 Z"/></g>
<g><path style="opacity:0.145" fill="#c8ccda" d="M 173.5,9.5 C 175.027,9.42702 176.027,10.0937 176.5,11.5C 174.973,11.573 173.973,10.9063 173.5,9.5 Z"/></g>
<g><path style="opacity:0.898" fill="#7d82ab" d="M 90.5,11.5 C 89.3646,13.2132 87.698,13.8799 85.5,13.5C 86.9303,12.4625 88.597,11.7959 90.5,11.5 Z"/></g>
<g><path style="opacity:1" fill="#2b7cca" d="M 153.5,10.5 C 154.568,11.4345 155.901,11.7678 157.5,11.5C 158.66,12.265 159.66,13.265 160.5,14.5C 148.63,14.9415 136.964,16.6082 125.5,19.5C 125.351,18.448 125.517,17.448 126,16.5C 134.336,11.0989 143.503,9.09888 153.5,10.5 Z"/></g>
<g><path style="opacity:0.643" fill="#e7b8a9" d="M 184.5,12.5 C 186.027,12.427 187.027,13.0937 187.5,14.5C 185.973,14.573 184.973,13.9063 184.5,12.5 Z"/></g>
<g><path style="opacity:1" fill="#e2643c" d="M 187.5,14.5 C 190.308,15.1028 192.974,16.1028 195.5,17.5C 194.693,19.5782 195.359,21.2449 197.5,22.5C 196.833,22.5 196.167,22.5 195.5,22.5C 192.5,20.1667 189.833,17.5 187.5,14.5 Z"/></g>
<g><path style="opacity:1" fill="#64669c" d="M 75.5,18.5 C 73.9921,21.0926 71.6587,22.4259 68.5,22.5C 70.3356,20.412 72.6689,19.0787 75.5,18.5 Z"/></g>
<g><path style="opacity:1" fill="#2f80ce" d="M 158.5,19.5 C 160.539,20.911 161.539,22.911 161.5,25.5C 156.291,26.2296 151.124,27.2296 146,28.5C 145.098,28.2568 144.265,27.9234 143.5,27.5C 145.239,24.59 147.572,22.09 150.5,20C 153.146,19.5026 155.813,19.3359 158.5,19.5 Z"/></g>
<g><path style="opacity:0.902" fill="#8b90b2" d="M 188.5,21.5 C 190.914,22.9108 192.581,24.9108 193.5,27.5C 191.086,26.0892 189.419,24.0892 188.5,21.5 Z"/></g>
<g><path style="opacity:1" fill="#5d6298" d="M 68.5,22.5 C 67.656,24.7593 65.9893,25.7593 63.5,25.5C 64.6594,23.7497 66.326,22.7497 68.5,22.5 Z"/></g>
<g><path style="opacity:0.667" fill="#e6ab97" d="M 195.5,22.5 C 196.167,22.5 196.833,22.5 197.5,22.5C 197.833,23.8333 198.167,25.1667 198.5,26.5C 197.026,25.5637 196.026,24.2303 195.5,22.5 Z"/></g>
<g><path style="opacity:0.678" fill="#878db1" d="M 63.5,25.5 C 62.7377,27.2624 61.4044,28.2624 59.5,28.5C 60.2623,26.7376 61.5956,25.7376 63.5,25.5 Z"/></g>
<g><path style="opacity:0.192" fill="#f2cdc1" d="M 219.5,25.5 C 221.027,25.427 222.027,26.0937 222.5,27.5C 220.973,27.573 219.973,26.9063 219.5,25.5 Z"/></g>
<g><path style="opacity:0.839" fill="#777da8" d="M 59.5,28.5 C 59.0269,29.9063 58.0269,30.573 56.5,30.5C 56.9731,29.0937 57.9731,28.427 59.5,28.5 Z"/></g>
<g><path style="opacity:0.698" fill="#8891af" d="M 193.5,27.5 C 195.262,28.2623 196.262,29.5956 196.5,31.5C 194.738,30.7377 193.738,29.4044 193.5,27.5 Z"/></g>
<g><path style="opacity:0.231" fill="#e9c5bb" d="M 199.5,27.5 C 200.906,27.9731 201.573,28.9731 201.5,30.5C 200.094,30.0269 199.427,29.0269 199.5,27.5 Z"/></g>
<g><path style="opacity:0.02" fill="#f1d2c6" d="M 225.5,29.5 C 227.027,29.427 228.027,30.0937 228.5,31.5C 226.973,31.573 225.973,30.9063 225.5,29.5 Z"/></g>
<g><path style="opacity:1" fill="#e74207" d="M 192.5,11.5 C 201.979,15.405 210.979,20.0716 219.5,25.5C 219.973,26.9063 220.973,27.573 222.5,27.5C 224.027,27.427 225.027,28.0937 225.5,29.5C 225.973,30.9063 226.973,31.573 228.5,31.5C 230.754,32.1237 232.421,33.457 233.5,35.5C 234.262,37.2624 235.596,38.2624 237.5,38.5C 239.5,39.8333 241.167,41.5 242.5,43.5C 243.833,45.5 245.5,47.1667 247.5,48.5C 248.5,48.8333 249.167,49.5 249.5,50.5C 250.419,53.0892 252.086,55.0892 254.5,56.5C 255.08,58.7488 256.413,60.4154 258.5,61.5C 258.738,63.4044 259.738,64.7377 261.5,65.5C 261.5,65.8333 261.5,66.1667 261.5,66.5C 260.178,66.67 259.011,66.3366 258,65.5C 255.016,67.1611 252.349,69.1611 250,71.5C 248.715,71.0496 247.548,70.3829 246.5,69.5C 246.454,73.8463 245.12,74.1796 242.5,70.5C 241.386,71.723 241.219,73.0563 242,74.5C 243.757,76.4077 245.257,78.4077 246.5,80.5C 246.547,82.0004 245.881,83.0004 244.5,83.5C 240.621,76.8598 238.954,77.1931 239.5,84.5C 240.675,84.281 241.675,84.6143 242.5,85.5C 241.234,86.3624 239.901,87.0291 238.5,87.5C 237.833,87.5 237.167,87.5 236.5,87.5C 235.5,85.8333 234.167,84.5 232.5,83.5C 232.44,82.9569 232.107,82.6236 231.5,82.5C 230.507,87.1196 230.173,91.7863 230.5,96.5C 229.948,100.035 228.782,103.368 227,106.5C 219.667,115.167 212.333,123.833 205,132.5C 202.962,135.243 201.462,138.243 200.5,141.5C 200.5,141.833 200.5,142.167 200.5,142.5C 197.831,147.372 196.831,152.705 197.5,158.5C 196.346,152.013 196.179,145.346 197,138.5C 198.011,137.663 199.178,137.33 200.5,137.5C 200.48,135.857 201.147,134.524 202.5,133.5C 202.167,133.167 201.833,132.833 201.5,132.5C 199.714,134.922 198.048,134.922 196.5,132.5C 195.614,133.325 195.281,134.325 195.5,135.5C 193.654,135.778 192.32,135.111 191.5,133.5C 193.962,132.206 196.295,130.706 198.5,129C 193.438,129.609 188.771,131.442 184.5,134.5C 183.334,132.635 183.667,130.968 185.5,129.5C 188.107,128.682 190.774,128.182 193.5,128C 194.618,126.926 195.618,125.76 196.5,124.5C 197.464,127.083 198.798,127.583 200.5,126C 199.79,123.456 198.124,122.289 195.5,122.5C 193.323,123.246 191.323,124.246 189.5,125.5C 188.328,125.081 187.328,124.415 186.5,123.5C 185.378,124.63 184.044,125.297 182.5,125.5C 183.167,124.5 183.833,123.5 184.5,122.5C 188.5,120.5 191.5,117.5 193.5,113.5C 193.833,112.5 194.5,111.833 195.5,111.5C 197.262,110.738 198.262,109.404 198.5,107.5C 199.906,107.027 200.573,106.027 200.5,104.5C 201.906,104.027 202.573,103.027 202.5,101.5C 203.326,98.5152 204.659,95.8485 206.5,93.5C 208.213,92.3646 208.88,90.698 208.5,88.5C 209.191,83.7404 210.191,79.0737 211.5,74.5C 212.652,69.0154 212.818,63.3487 212,57.5C 211.707,53.1323 210.54,49.1323 208.5,45.5C 207.596,44.791 207.263,43.791 207.5,42.5C 207.206,39.2459 205.873,36.5792 203.5,34.5C 202.326,33.4863 201.66,32.153 201.5,30.5C 201.573,28.9731 200.906,27.9731 199.5,27.5C 198.833,27.5 198.5,27.1667 198.5,26.5C 198.167,25.1667 197.833,23.8333 197.5,22.5C 195.359,21.2449 194.693,19.5782 195.5,17.5C 192.974,16.1028 190.308,15.1028 187.5,14.5C 187.027,13.0937 186.027,12.427 184.5,12.5C 184.791,11.3509 185.624,10.6842 187,10.5C 188.825,10.9434 190.658,11.2767 192.5,11.5 Z"/></g>
<g><path style="opacity:0.894" fill="#7277a7" d="M 56.5,30.5 C 55.0892,32.914 53.0892,34.5806 50.5,35.5C 51.9108,33.086 53.9108,31.4194 56.5,30.5 Z"/></g>
<g><path style="opacity:0.388" fill="#a2a8c0" d="M 197.5,33.5 C 198.906,33.9731 199.573,34.9731 199.5,36.5C 198.094,36.0269 197.427,35.0269 197.5,33.5 Z"/></g>
<g><path style="opacity:0.012" fill="#f6d2c6" d="M 233.5,35.5 C 235.404,35.7376 236.738,36.7376 237.5,38.5C 235.596,38.2624 234.262,37.2624 233.5,35.5 Z"/></g>
<g><path style="opacity:0.247" fill="#edc7be" d="M 203.5,34.5 C 205.873,36.5792 207.206,39.2459 207.5,42.5C 205.659,40.1515 204.326,37.4848 203.5,34.5 Z"/></g>
<g><path style="opacity:0.808" fill="#7d83ac" d="M 50.5,35.5 C 45.5,41.1667 40.1667,46.5 34.5,51.5C 38.8333,45.1667 44.1667,39.8333 50.5,35.5 Z"/></g>
<g><path style="opacity:0.984" fill="#8082ad" d="M 200.5,38.5 C 201.931,39.7804 202.598,41.4471 202.5,43.5C 200.787,42.3646 200.12,40.698 200.5,38.5 Z"/></g>
<g><path style="opacity:0.004" fill="#f5d5cc" d="M 242.5,43.5 C 245.167,44.1667 246.833,45.8333 247.5,48.5C 245.5,47.1667 243.833,45.5 242.5,43.5 Z"/></g>
<g><path style="opacity:0.937" fill="#7d81a9" d="M 202.5,43.5 C 203.924,45.5145 204.59,47.8478 204.5,50.5C 203.076,48.4855 202.41,46.1522 202.5,43.5 Z"/></g>
<g><path style="opacity:0.91" fill="#f0a28d" d="M 249.5,50.5 C 251.914,51.9108 253.581,53.9108 254.5,56.5C 252.086,55.0892 250.419,53.0892 249.5,50.5 Z"/></g>
<g><path style="opacity:0.671" fill="#9096b8" d="M 34.5,51.5 C 33.9202,53.7488 32.5869,55.4154 30.5,56.5C 31.0798,54.2512 32.4131,52.5846 34.5,51.5 Z"/></g>
<g><path style="opacity:1" fill="#357cc9" d="M 99.5,55.5 C 104.179,55.3342 108.845,55.5008 113.5,56C 116.592,56.9338 116.925,58.1004 114.5,59.5C 110.299,57.7664 105.965,57.2664 101.5,58C 94.9278,61.9025 88.9278,66.5691 83.5,72C 82.6683,72.6877 82.0016,72.521 81.5,71.5C 82.5922,68.9058 84.2589,66.7391 86.5,65C 90.9008,61.8121 95.2341,58.6454 99.5,55.5 Z"/></g>
<g><path style="opacity:0.875" fill="#8389ae" d="M 30.5,56.5 C 30.2624,58.4044 29.2624,59.7377 27.5,60.5C 27.7376,58.5956 28.7376,57.2623 30.5,56.5 Z"/></g>
<g><path style="opacity:0.424" fill="#eead9c" d="M 254.5,56.5 C 256.587,57.5846 257.92,59.2512 258.5,61.5C 256.413,60.4154 255.08,58.7488 254.5,56.5 Z"/></g>
<g><path style="opacity:0.62" fill="#9599ba" d="M 27.5,60.5 C 27.2624,62.4044 26.2624,63.7377 24.5,64.5C 24.7376,62.5956 25.7376,61.2623 27.5,60.5 Z"/></g>
<g><path style="opacity:0.58" fill="#9498b3" d="M 205.5,54.5 C 206.165,57.8167 206.499,61.3167 206.5,65C 206.707,70.1021 206.04,74.9355 204.5,79.5C 205.24,71.1876 205.573,62.8543 205.5,54.5 Z"/></g>
<g><path style="opacity:0.604" fill="#eeb09c" d="M 258.5,61.5 C 260.262,62.2623 261.262,63.5956 261.5,65.5C 259.738,64.7377 258.738,63.4044 258.5,61.5 Z"/></g>
<g><path style="opacity:0.349" fill="#e8baac" d="M 208.5,45.5 C 210.54,49.1323 211.707,53.1323 212,57.5C 212.818,63.3487 212.652,69.0154 211.5,74.5C 211.868,64.6783 210.868,55.0116 208.5,45.5 Z"/></g>
<g><path style="opacity:1" fill="#5b5c96" d="M 24.5,64.5 C 24.7593,66.9893 23.7593,68.656 21.5,69.5C 22.1103,67.5659 23.1103,65.8993 24.5,64.5 Z"/></g>
<g><path style="opacity:1" fill="#0f439b" d="M 165.5,94.5 C 164.521,93.2347 163.521,91.9014 162.5,90.5C 152.632,94.0847 142.632,94.4181 132.5,91.5C 131.129,85.1097 131.296,78.7763 133,72.5C 138.245,71.4199 143.412,69.9199 148.5,68C 149.823,67.1841 150.489,66.0174 150.5,64.5C 151.117,64.6107 151.617,64.944 152,65.5C 153.85,62.7866 155.017,59.7866 155.5,56.5C 156.689,55.5713 158.022,55.238 159.5,55.5C 159.708,59.8794 159.375,64.2127 158.5,68.5C 159.874,71.4508 161.707,74.1175 164,76.5C 165.304,82.4229 165.804,88.4229 165.5,94.5 Z"/></g>
<g><path style="opacity:1" fill="#e84005" d="M 261.5,66.5 C 261.833,67.5 262.5,68.1667 263.5,68.5C 263.427,70.0269 264.094,71.0269 265.5,71.5C 266.338,71.8417 266.672,72.5084 266.5,73.5C 266.427,75.0269 267.094,76.0269 268.5,76.5C 272.985,83.6062 276.318,91.2729 278.5,99.5C 279.057,104.165 280.39,108.498 282.5,112.5C 282.42,115.781 283.087,118.781 284.5,121.5C 285.065,123.952 285.732,126.285 286.5,128.5C 286.5,139.5 286.5,150.5 286.5,161.5C 285.833,161.5 285.5,161.833 285.5,162.5C 283.212,170.32 281.212,178.32 279.5,186.5C 279.737,187.791 279.404,188.791 278.5,189.5C 277.655,190.671 276.989,192.005 276.5,193.5C 274.088,193.694 273.088,195.027 273.5,197.5C 272.127,197.657 270.793,197.49 269.5,197C 270.604,195.869 270.271,195.035 268.5,194.5C 267.354,195.145 266.354,195.978 265.5,197C 267.211,198.133 267.711,199.633 267,201.5C 264.962,197.427 263.462,197.76 262.5,202.5C 261.17,200.907 259.836,199.24 258.5,197.5C 258.938,196.494 259.604,196.494 260.5,197.5C 261.833,195.5 261.833,193.5 260.5,191.5C 258.301,194.089 256.134,196.756 254,199.5C 253.505,197.527 253.338,195.527 253.5,193.5C 250.924,193.468 248.591,194.135 246.5,195.5C 247.21,193.254 247.71,190.92 248,188.5C 248.278,189.416 248.778,190.082 249.5,190.5C 249.791,191.649 250.624,192.316 252,192.5C 254.477,192.244 256.144,190.911 257,188.5C 258,186.5 259,184.5 260,182.5C 260.903,171.774 260.569,161.107 259,150.5C 258.333,151.833 257.667,151.833 257,150.5C 256.667,148.833 256.333,147.167 256,145.5C 255.586,145.957 255.086,146.291 254.5,146.5C 253.239,144.547 252.073,142.547 251,140.5C 250.828,134.319 250.328,128.319 249.5,122.5C 247.052,121.527 244.385,121.194 241.5,121.5C 241.5,122.833 241.5,124.167 241.5,125.5C 240.5,125.5 239.5,125.5 238.5,125.5C 238.719,126.675 238.386,127.675 237.5,128.5C 236.604,127.494 235.938,127.494 235.5,128.5C 236.246,129.736 236.579,131.07 236.5,132.5C 235.5,132.5 234.5,132.5 233.5,132.5C 232.624,129.201 232.457,125.868 233,122.5C 236.861,116.403 239.194,109.736 240,102.5C 240.699,97.2971 240.199,92.2971 238.5,87.5C 239.901,87.0291 241.234,86.3624 242.5,85.5C 241.675,84.6143 240.675,84.281 239.5,84.5C 238.954,77.1931 240.621,76.8598 244.5,83.5C 245.881,83.0004 246.547,82.0004 246.5,80.5C 245.257,78.4077 243.757,76.4077 242,74.5C 241.219,73.0563 241.386,71.723 242.5,70.5C 245.12,74.1796 246.454,73.8463 246.5,69.5C 247.548,70.3829 248.715,71.0496 250,71.5C 252.349,69.1611 255.016,67.1611 258,65.5C 259.011,66.3366 260.178,66.67 261.5,66.5 Z"/></g>
<g><path style="opacity:0.341" fill="#f2c5b8" d="M 261.5,65.5 C 262.906,65.9731 263.573,66.9731 263.5,68.5C 262.5,68.1667 261.833,67.5 261.5,66.5C 261.5,66.1667 261.5,65.8333 261.5,65.5 Z"/></g>
<g><path style="opacity:0.341" fill="#f5c6bb" d="M 263.5,68.5 C 264.906,68.9731 265.573,69.9731 265.5,71.5C 264.094,71.0269 263.427,70.0269 263.5,68.5 Z"/></g>
<g><path style="opacity:1" fill="#666a9c" d="M 21.5,69.5 C 21.4077,71.8477 20.4077,73.5144 18.5,74.5C 18.7497,72.326 19.7497,70.6594 21.5,69.5 Z"/></g>
<g><path style="opacity:0.255" fill="#f2cfc3" d="M 266.5,73.5 C 267.906,73.9731 268.573,74.9731 268.5,76.5C 267.094,76.0269 266.427,75.0269 266.5,73.5 Z"/></g>
<g><path style="opacity:0.388" fill="#a4aac4" d="M 17.5,76.5 C 17.573,78.0269 16.9063,79.0269 15.5,79.5C 15.427,77.9731 16.0937,76.9731 17.5,76.5 Z"/></g>
<g><path style="opacity:1" fill="#2985d2" d="M 127.5,28.5 C 130.044,28.1043 132.211,28.771 134,30.5C 134.811,41.5466 134.644,52.5466 133.5,63.5C 139.128,64.4954 144.794,64.8288 150.5,64.5C 150.489,66.0174 149.823,67.1841 148.5,68C 143.412,69.9199 138.245,71.4199 133,72.5C 131.296,78.7763 131.129,85.1097 132.5,91.5C 142.632,94.4181 152.632,94.0847 162.5,90.5C 163.521,91.9014 164.521,93.2347 165.5,94.5C 166.914,96.0542 168.581,97.3875 170.5,98.5C 170.043,99.2975 169.376,99.6309 168.5,99.5C 136.5,99.5 104.5,99.5 72.5,99.5C 72.4609,97.6412 73.2942,96.3079 75,95.5C 75.9225,91.2099 76.4225,86.8766 76.5,82.5C 92.8456,82.3832 109.179,82.7166 125.5,83.5C 125.993,81.1944 126.326,78.861 126.5,76.5C 117.833,76.5 109.167,76.5 100.5,76.5C 100.203,72.2325 100.536,68.0659 101.5,64C 109.814,64.703 118.148,64.5363 126.5,63.5C 125.356,52.5466 125.189,41.5466 126,30.5C 126.717,29.9558 127.217,29.2891 127.5,28.5 Z"/></g>
<g><path style="opacity:1" fill="#ef8518" d="M 232.5,83.5 C 231.833,87.8333 231.167,92.1667 230.5,96.5C 230.173,91.7863 230.507,87.1196 231.5,82.5C 232.107,82.6236 232.44,82.9569 232.5,83.5 Z"/></g>
<g><path style="opacity:1" fill="#7675a4" d="M 202.5,86.5 C 201.958,89.9122 200.625,92.9122 198.5,95.5C 198.513,91.8475 199.847,88.8475 202.5,86.5 Z"/></g>
<g><path style="opacity:0.953" fill="#e99881" d="M 208.5,88.5 C 208.88,90.698 208.213,92.3646 206.5,93.5C 206.796,91.597 207.463,89.9303 208.5,88.5 Z"/></g>
<g><path style="opacity:0.102" fill="#d0d2e0" d="M 10.5,90.5 C 10.5979,92.5529 9.93127,94.2196 8.5,95.5C 8.40206,93.4471 9.06873,91.7804 10.5,90.5 Z"/></g>
<g><path style="opacity:0.945" fill="#8085b0" d="M 8.5,96.5 C 7.40782,102.433 5.74116,108.1 3.5,113.5C 4.18415,107.457 5.85081,101.79 8.5,96.5 Z"/></g>
<g><path style="opacity:0.886" fill="#edab94" d="M 278.5,99.5 C 280.61,103.502 281.943,107.835 282.5,112.5C 280.39,108.498 279.057,104.165 278.5,99.5 Z"/></g>
<g><path style="opacity:0.376" fill="#e8beae" d="M 202.5,101.5 C 202.573,103.027 201.906,104.027 200.5,104.5C 200.427,102.973 201.094,101.973 202.5,101.5 Z"/></g>
<g><path style="opacity:0.376" fill="#e9c3b7" d="M 200.5,104.5 C 200.573,106.027 199.906,107.027 198.5,107.5C 198.427,105.973 199.094,104.973 200.5,104.5 Z"/></g>
<g><path style="opacity:0.588" fill="#e6b2a0" d="M 198.5,107.5 C 198.262,109.404 197.262,110.738 195.5,111.5C 195.738,109.596 196.738,108.262 198.5,107.5 Z"/></g>
<g><path style="opacity:0.267" fill="#b6bdd0" d="M 86.5,112.5 C 76.4187,112.17 66.4187,112.837 56.5,114.5C 58.8766,113.113 61.5432,112.279 64.5,112C 72.0118,111.178 79.3451,111.345 86.5,112.5 Z"/></g>
<g><path style="opacity:1" fill="#606198" d="M 196.5,98.5 C 191.443,108.557 183.777,115.89 173.5,120.5C 173.5,119.5 173.5,118.5 173.5,117.5C 177.455,115.523 181.455,113.523 185.5,111.5C 185.5,110.167 185.5,108.833 185.5,107.5C 186.873,107.657 188.207,107.49 189.5,107C 191.067,104.7 192.233,102.2 193,99.5C 194.011,98.6634 195.178,98.33 196.5,98.5 Z"/></g>
<g><path style="opacity:0.71" fill="#acb3cb" d="M 91.5,113.5 C 94.2282,113.171 96.5615,113.837 98.5,115.5C 95.9327,115.279 93.5994,114.612 91.5,113.5 Z"/></g>
<g><path style="opacity:0.298" fill="#aeb4c7" d="M 52.5,115.5 C 51.2196,116.931 49.5529,117.598 47.5,117.5C 48.7804,116.069 50.4471,115.402 52.5,115.5 Z"/></g>
<g><path style="opacity:0.663" fill="#f0c2b2" d="M 282.5,112.5 C 283.913,115.219 284.58,118.219 284.5,121.5C 283.087,118.781 282.42,115.781 282.5,112.5 Z"/></g>
<g><path style="opacity:0.894" fill="#bad7b6" d="M 84.5,118.5 C 77.1667,118.5 69.8333,118.5 62.5,118.5C 69.8333,115.833 77.1667,115.833 84.5,118.5 Z"/></g>
<g><path style="opacity:0.239" fill="#afb4ca" d="M 99.5,115.5 C 102.079,115.394 104.412,116.061 106.5,117.5C 107.71,117.932 108.71,118.599 109.5,119.5C 105.884,118.686 102.551,117.352 99.5,115.5 Z"/></g>
<g><path style="opacity:0.702" fill="#e9a28b" d="M 193.5,113.5 C 191.5,117.5 188.5,120.5 184.5,122.5C 187.167,119.167 190.167,116.167 193.5,113.5 Z"/></g>
<g><path style="opacity:1" fill="#90c183" d="M 61.5,118.5 C 60.7659,119.708 60.4326,121.041 60.5,122.5C 55.8809,123.314 51.2142,123.647 46.5,123.5C 50.9483,120.464 55.9483,118.798 61.5,118.5 Z"/></g>
<g><path style="opacity:0.216" fill="#bdc0d3" d="M 171.5,121.5 C 170.713,123.104 169.38,123.771 167.5,123.5C 168.514,122.326 169.847,121.66 171.5,121.5 Z"/></g>
<g><path style="opacity:1" fill="#accea2" d="M 89.5,119.5 C 100.085,121.291 109.085,125.958 116.5,133.5C 115.391,133.557 114.391,133.89 113.5,134.5C 109.606,128.533 103.939,125.033 96.5,124C 96.8333,123.667 97.1667,123.333 97.5,123C 94.6907,121.907 92.024,120.74 89.5,119.5 Z"/></g>
<g><path style="opacity:0.584" fill="#e8af9e" d="M 184.5,122.5 C 183.833,123.5 183.167,124.5 182.5,125.5C 181.833,125.5 181.167,125.5 180.5,125.5C 181.262,123.738 182.596,122.738 184.5,122.5 Z"/></g>
<g><path style="opacity:0.933" fill="#8289b1" d="M 120.5,124.5 C 124.162,124.723 127.495,125.723 130.5,127.5C 126.838,127.277 123.505,126.277 120.5,124.5 Z"/></g>
<g><path style="opacity:0.6" fill="#c1dabb" d="M 46.5,123.5 C 45.5144,125.408 43.8477,126.408 41.5,126.5C 42.6594,124.75 44.326,123.75 46.5,123.5 Z"/></g>
<g><path style="opacity:0.702" fill="#e4a692" d="M 180.5,125.5 C 180.027,126.906 179.027,127.573 177.5,127.5C 177.973,126.094 178.973,125.427 180.5,125.5 Z"/></g>
<g><path style="opacity:1" fill="#fee937" d="M 232.5,83.5 C 234.167,84.5 235.5,85.8333 236.5,87.5C 238.208,92.371 238.708,97.371 238,102.5C 235.453,112.144 232.119,121.477 228,130.5C 226.622,136.47 227.789,141.804 231.5,146.5C 232.855,149.518 235.188,150.851 238.5,150.5C 238.5,149.167 238.5,147.833 238.5,146.5C 238.174,142.116 238.508,137.783 239.5,133.5C 241.507,130.735 243.674,128.068 246,125.5C 246.687,131.204 246.521,136.87 245.5,142.5C 240.712,142.931 240.378,144.264 244.5,146.5C 245.647,146.182 246.481,145.516 247,144.5C 248.423,149.621 249.423,149.621 250,144.5C 250.236,146.119 251.069,147.119 252.5,147.5C 252.579,148.93 252.246,150.264 251.5,151.5C 252.616,151.402 253.616,151.902 254.5,153C 255.877,159.904 257.21,166.07 258.5,171.5C 257.641,177.272 256.307,182.938 254.5,188.5C 253.615,191.323 251.948,191.99 249.5,190.5C 249.731,183.757 248.231,177.423 245,171.5C 238.641,163.146 231.641,155.48 224,148.5C 222.11,148.785 220.777,149.785 220,151.5C 214.333,160.5 208.667,169.5 203,178.5C 201.957,181.757 201.457,185.09 201.5,188.5C 200.5,188.5 199.5,188.5 198.5,188.5C 198.167,188.5 197.833,188.5 197.5,188.5C 196.878,187.373 196.045,186.373 195,185.5C 192.627,178.049 190.46,170.549 188.5,163C 188.833,161.833 189.167,160.667 189.5,159.5C 191.953,162.241 194.286,165.075 196.5,168C 198.134,168.494 199.801,168.66 201.5,168.5C 201.248,164.673 199.915,161.34 197.5,158.5C 196.831,152.705 197.831,147.372 200.5,142.5C 198.004,151.677 199.504,160.01 205,167.5C 205.925,166.953 206.758,166.287 207.5,165.5C 205.488,164.852 204.155,163.019 203.5,160C 204.959,158.771 207.126,157.271 210,155.5C 210.483,154.552 210.649,153.552 210.5,152.5C 212.912,152.244 214.579,153.244 215.5,155.5C 215.833,155.167 216.167,154.833 216.5,154.5C 217.38,150.428 218.38,146.428 219.5,142.5C 218.167,142.5 216.833,142.5 215.5,142.5C 215.238,141.022 215.571,139.689 216.5,138.5C 218.544,140.355 220.711,141.022 223,140.5C 224.289,137.649 224.789,134.649 224.5,131.5C 219.526,129.793 218.526,131.126 221.5,135.5C 220.311,136.429 218.978,136.762 217.5,136.5C 218.244,133.05 216.91,131.384 213.5,131.5C 213.5,130.5 213.5,129.5 213.5,128.5C 214.833,128.5 216.167,128.5 217.5,128.5C 217.66,126.801 217.494,125.134 217,123.5C 213.564,125.616 210.73,128.282 208.5,131.5C 210.397,132.668 210.564,134.335 209,136.5C 207.676,137.88 206.343,138.214 205,137.5C 203.931,139.407 202.431,140.741 200.5,141.5C 201.462,138.243 202.962,135.243 205,132.5C 212.333,123.833 219.667,115.167 227,106.5C 228.782,103.368 229.948,100.035 230.5,96.5C 231.167,92.1667 231.833,87.8333 232.5,83.5 Z"/></g>
<g><path style="opacity:1" fill="#df4c01" d="M 236.5,87.5 C 237.167,87.5 237.833,87.5 238.5,87.5C 240.199,92.2971 240.699,97.2971 240,102.5C 239.194,109.736 236.861,116.403 233,122.5C 232.457,125.868 232.624,129.201 233.5,132.5C 234.5,132.5 235.5,132.5 236.5,132.5C 236.579,131.07 236.246,129.736 235.5,128.5C 235.938,127.494 236.604,127.494 237.5,128.5C 238.386,127.675 238.719,126.675 238.5,125.5C 239.5,125.5 240.5,125.5 241.5,125.5C 241.5,124.167 241.5,122.833 241.5,121.5C 244.385,121.194 247.052,121.527 249.5,122.5C 249.167,122.5 248.833,122.5 248.5,122.5C 237.863,127.116 234.196,135.116 237.5,146.5C 237.53,147.497 237.03,148.164 236,148.5C 234.594,147.586 233.094,146.92 231.5,146.5C 227.789,141.804 226.622,136.47 228,130.5C 232.119,121.477 235.453,112.144 238,102.5C 238.708,97.371 238.208,92.371 236.5,87.5 Z"/></g>
<g><path style="opacity:1" fill="#545693" d="M 41.5,120.5 C 36.5244,124.47 31.5244,128.47 26.5,132.5C 26.2606,130.533 26.5939,128.699 27.5,127C 30.941,125.521 34.2744,123.855 37.5,122C 36.376,121.751 35.376,121.251 34.5,120.5C 34.6667,120.167 34.8333,119.833 35,119.5C 37.0408,120.423 39.2075,120.756 41.5,120.5 Z"/></g>
<g><path style="opacity:1" fill="#70b45c" d="M 61.5,118.5 C 61.8333,118.5 62.1667,118.5 62.5,118.5C 69.8333,118.5 77.1667,118.5 84.5,118.5C 86.4147,118.216 88.0813,118.549 89.5,119.5C 92.024,120.74 94.6907,121.907 97.5,123C 97.1667,123.333 96.8333,123.667 96.5,124C 103.939,125.033 109.606,128.533 113.5,134.5C 112.739,135.391 111.739,136.058 110.5,136.5C 107.931,135.478 105.765,134.144 104,132.5C 102.174,133.01 102.007,133.844 103.5,135C 96.8581,135.831 90.1915,136.331 83.5,136.5C 78.6737,136.695 74.007,136.029 69.5,134.5C 68.2141,134.852 67.3808,135.518 67,136.5C 62.8398,134.586 58.5064,133.252 54,132.5C 52.8333,132.833 51.6667,133.167 50.5,133.5C 51.0253,134.192 51.6919,134.692 52.5,135C 46.6742,135.142 41.0076,135.975 35.5,137.5C 35.33,136.178 35.6634,135.011 36.5,134C 35.1807,133.805 33.8474,133.972 32.5,134.5C 32.8333,133.833 33.1667,133.167 33.5,132.5C 35.8003,130.016 38.4669,128.016 41.5,126.5C 43.8477,126.408 45.5144,125.408 46.5,123.5C 51.2142,123.647 55.8809,123.314 60.5,122.5C 60.4326,121.041 60.7659,119.708 61.5,118.5 Z"/></g>
<g><path style="opacity:0.749" fill="#99a0c2" d="M 158.5,126.5 C 149.255,129.892 139.922,130.226 130.5,127.5C 139.857,127.65 149.191,127.317 158.5,126.5 Z"/></g>
<g><path style="opacity:0.737" fill="#e5a893" d="M 177.5,127.5 C 177.027,128.906 176.027,129.573 174.5,129.5C 174.973,128.094 175.973,127.427 177.5,127.5 Z"/></g>
<g><path style="opacity:0.651" fill="#ebae99" d="M 174.5,129.5 C 174.027,130.906 173.027,131.573 171.5,131.5C 171.973,130.094 172.973,129.427 174.5,129.5 Z"/></g>
<g><path style="opacity:0.49" fill="#969bba" d="M 2.5,119.5 C 2.24908,124.507 1.91574,129.507 1.5,134.5C 1.16667,134.5 0.833333,134.5 0.5,134.5C 0.30249,129.25 0.969157,124.25 2.5,119.5 Z"/></g>
<g><path style="opacity:0.592" fill="#e9ad9a" d="M 171.5,131.5 C 170.738,133.262 169.404,134.262 167.5,134.5C 168.262,132.738 169.596,131.738 171.5,131.5 Z"/></g>
<g><path style="opacity:1" fill="#3c4485" d="M 26.5,132.5 C 25.5,134.167 24.1667,135.5 22.5,136.5C 22.1667,136.5 21.8333,136.5 21.5,136.5C 21.4226,135.25 20.756,134.417 19.5,134C 20.6667,133.5 21.5,132.667 22,131.5C 23.3561,132.38 24.8561,132.714 26.5,132.5 Z"/></g>
<g><path style="opacity:0.012" fill="#d4e4d1" d="M 116.5,133.5 C 119.5,134.5 121.5,136.5 122.5,139.5C 120.167,137.833 118.167,135.833 116.5,133.5 Z"/></g>
<g><path style="opacity:1" fill="#fdee35" d="M 200.5,142.5 C 200.5,142.167 200.5,141.833 200.5,141.5C 202.431,140.741 203.931,139.407 205,137.5C 206.343,138.214 207.676,137.88 209,136.5C 210.564,134.335 210.397,132.668 208.5,131.5C 210.73,128.282 213.564,125.616 217,123.5C 217.494,125.134 217.66,126.801 217.5,128.5C 216.167,128.5 214.833,128.5 213.5,128.5C 213.5,129.5 213.5,130.5 213.5,131.5C 216.91,131.384 218.244,133.05 217.5,136.5C 218.978,136.762 220.311,136.429 221.5,135.5C 218.526,131.126 219.526,129.793 224.5,131.5C 224.789,134.649 224.289,137.649 223,140.5C 220.711,141.022 218.544,140.355 216.5,138.5C 215.571,139.689 215.238,141.022 215.5,142.5C 216.833,142.5 218.167,142.5 219.5,142.5C 218.38,146.428 217.38,150.428 216.5,154.5C 216.167,154.833 215.833,155.167 215.5,155.5C 214.579,153.244 212.912,152.244 210.5,152.5C 210.649,153.552 210.483,154.552 210,155.5C 207.126,157.271 204.959,158.771 203.5,160C 204.155,163.019 205.488,164.852 207.5,165.5C 206.758,166.287 205.925,166.953 205,167.5C 199.504,160.01 198.004,151.677 200.5,142.5 Z"/></g>
<g><path style="opacity:1" fill="#64a950" d="M 113.5,134.5 C 114.391,133.89 115.391,133.557 116.5,133.5C 118.167,135.833 120.167,137.833 122.5,139.5C 124.587,140.585 125.92,142.251 126.5,144.5C 126.539,145.583 126.873,146.583 127.5,147.5C 127.043,148.298 126.376,148.631 125.5,148.5C 123.742,148.123 122.075,147.456 120.5,146.5C 119.315,147.853 117.981,149.02 116.5,150C 111.5,150.333 106.5,150.667 101.5,151C 106.864,151.171 112.198,151.671 117.5,152.5C 117.291,153.086 116.957,153.586 116.5,154C 110.674,154.142 105.008,154.975 99.5,156.5C 99.719,155.325 99.3857,154.325 98.5,153.5C 97.7702,154.934 96.7702,156.1 95.5,157C 95.6414,161.145 96.3081,165.311 97.5,169.5C 99.6314,173.792 99.9648,178.125 98.5,182.5C 98.614,165.228 90.9473,152.728 75.5,145C 71.0268,144.038 67.0268,144.871 63.5,147.5C 54.0317,153.28 48.6984,161.614 47.5,172.5C 47.5,169.5 47.5,166.5 47.5,163.5C 47.9234,162.735 48.2568,161.902 48.5,161C 46.9537,159.527 45.9537,157.694 45.5,155.5C 45.8396,153.488 46.1729,151.488 46.5,149.5C 45.5,149.5 44.5,149.5 43.5,149.5C 43.5,150.5 43.5,151.5 43.5,152.5C 36.3341,152.333 29.0008,152.333 21.5,152.5C 21.6567,151.127 21.49,149.793 21,148.5C 20.5831,149.756 19.7498,150.423 18.5,150.5C 18.7497,148.326 19.7497,146.659 21.5,145.5C 23.5869,144.415 24.9202,142.749 25.5,140.5C 27.8333,138.5 30.1667,136.5 32.5,134.5C 33.8474,133.972 35.1807,133.805 36.5,134C 35.6634,135.011 35.33,136.178 35.5,137.5C 41.0076,135.975 46.6742,135.142 52.5,135C 51.6919,134.692 51.0253,134.192 50.5,133.5C 51.6667,133.167 52.8333,132.833 54,132.5C 58.5064,133.252 62.8398,134.586 67,136.5C 67.3808,135.518 68.2141,134.852 69.5,134.5C 74.007,136.029 78.6737,136.695 83.5,136.5C 90.1915,136.331 96.8581,135.831 103.5,135C 102.007,133.844 102.174,133.01 104,132.5C 105.765,134.144 107.931,135.478 110.5,136.5C 111.739,136.058 112.739,135.391 113.5,134.5 Z"/></g>
<g><path style="opacity:0.004" fill="#c7cbd8" d="M 21.5,136.5 C 21.8333,136.5 22.1667,136.5 22.5,136.5C 22.573,138.027 21.9063,139.027 20.5,139.5C 20.5569,138.391 20.8902,137.391 21.5,136.5 Z"/></g>
<g><path style="opacity:0.8" fill="#eb9d86" d="M 167.5,134.5 C 166.089,136.914 164.089,138.581 161.5,139.5C 162.911,137.086 164.911,135.419 167.5,134.5 Z"/></g>
<g><path style="opacity:0.62" fill="#c3d7c1" d="M 33.5,132.5 C 33.1667,133.167 32.8333,133.833 32.5,134.5C 30.1667,136.5 27.8333,138.5 25.5,140.5C 27.1667,136.833 29.8333,134.167 33.5,132.5 Z"/></g>
<g><path style="opacity:1" fill="#fee33d" d="M 248.5,122.5 C 247.562,131.267 248.896,139.6 252.5,147.5C 251.069,147.119 250.236,146.119 250,144.5C 249.423,149.621 248.423,149.621 247,144.5C 246.481,145.516 245.647,146.182 244.5,146.5C 240.378,144.264 240.712,142.931 245.5,142.5C 246.521,136.87 246.687,131.204 246,125.5C 243.674,128.068 241.507,130.735 239.5,133.5C 238.508,137.783 238.174,142.116 238.5,146.5C 238.167,146.5 237.833,146.5 237.5,146.5C 234.196,135.116 237.863,127.116 248.5,122.5 Z"/></g>
<g><path style="opacity:0.758" fill="#929ac0" d="M 0.5,134.5 C 0.833333,134.5 1.16667,134.5 1.5,134.5C 1.5,143.5 1.5,152.5 1.5,161.5C 0.833333,158.5 0.166667,155.5 -0.5,152.5C -0.5,146.833 -0.5,141.167 -0.5,135.5C 0.166667,135.5 0.5,135.167 0.5,134.5 Z"/></g>
<g><path style="opacity:0.953" fill="#abc9a3" d="M 25.5,140.5 C 24.9202,142.749 23.5869,144.415 21.5,145.5C 22.0798,143.251 23.4131,141.585 25.5,140.5 Z"/></g>
<g><path style="opacity:0.792" fill="#eca389" d="M 161.5,139.5 C 160.243,142.427 158.243,144.761 155.5,146.5C 156.757,143.573 158.757,141.239 161.5,139.5 Z"/></g>
<g><path style="opacity:0.275" fill="#b3b7cc" d="M 17.5,143.5 C 17.573,145.027 16.9063,146.027 15.5,146.5C 15.427,144.973 16.0937,143.973 17.5,143.5 Z"/></g>
<g><path style="opacity:1" fill="#81b076" d="M 126.5,144.5 C 129.502,147.161 131.502,150.495 132.5,154.5C 131.325,154.719 130.325,154.386 129.5,153.5C 128.233,151.683 126.9,150.016 125.5,148.5C 126.376,148.631 127.043,148.298 127.5,147.5C 126.873,146.583 126.539,145.583 126.5,144.5 Z"/></g>
<g><path style="opacity:0.506" fill="#eaad99" d="M 155.5,146.5 C 155.573,148.027 154.906,149.027 153.5,149.5C 153.427,147.973 154.094,146.973 155.5,146.5 Z"/></g>
<g><path style="opacity:1" fill="#d76908" d="M 231.5,146.5 C 233.094,146.92 234.594,147.586 236,148.5C 237.03,148.164 237.53,147.497 237.5,146.5C 237.833,146.5 238.167,146.5 238.5,146.5C 238.5,147.833 238.5,149.167 238.5,150.5C 235.188,150.851 232.855,149.518 231.5,146.5 Z"/></g>
<g><path style="opacity:0.498" fill="#ecac98" d="M 153.5,149.5 C 153.573,151.027 152.906,152.027 151.5,152.5C 151.427,150.973 152.094,149.973 153.5,149.5 Z"/></g>
<g><path style="opacity:1" fill="#dc5602" d="M 248.5,122.5 C 248.833,122.5 249.167,122.5 249.5,122.5C 250.328,128.319 250.828,134.319 251,140.5C 252.073,142.547 253.239,144.547 254.5,146.5C 255.086,146.291 255.586,145.957 256,145.5C 256.333,147.167 256.667,148.833 257,150.5C 257.667,151.833 258.333,151.833 259,150.5C 260.569,161.107 260.903,171.774 260,182.5C 259,184.5 258,186.5 257,188.5C 256.144,190.911 254.477,192.244 252,192.5C 250.624,192.316 249.791,191.649 249.5,190.5C 251.948,191.99 253.615,191.323 254.5,188.5C 258.478,182.93 260.144,176.597 259.5,169.5C 259.619,161.286 257.286,153.952 252.5,147.5C 248.896,139.6 247.562,131.267 248.5,122.5 Z"/></g>
<g><path style="opacity:1" fill="#9fbf99" d="M 18.5,150.5 C 18.4077,152.848 17.4077,154.514 15.5,155.5C 15.7497,153.326 16.7497,151.659 18.5,150.5 Z"/></g>
<g><path style="opacity:0.259" fill="#f0cbc0" d="M 151.5,152.5 C 151.443,153.609 151.11,154.609 150.5,155.5C 150.167,155.5 149.833,155.5 149.5,155.5C 149.427,153.973 150.094,152.973 151.5,152.5 Z"/></g>
<g><path style="opacity:1" fill="#df5302" d="M 197.5,158.5 C 199.915,161.34 201.248,164.673 201.5,168.5C 199.801,168.66 198.134,168.494 196.5,168C 194.286,165.075 191.953,162.241 189.5,159.5C 189.167,160.667 188.833,161.833 188.5,163C 190.46,170.549 192.627,178.049 195,185.5C 196.045,186.373 196.878,187.373 197.5,188.5C 195.983,188.489 194.816,187.823 194,186.5C 193.71,184.956 193.044,183.623 192,182.5C 188.396,174.412 185.563,166.079 183.5,157.5C 182.5,157.5 181.5,157.5 180.5,157.5C 180.312,155.897 180.812,154.563 182,153.5C 182.465,154.931 183.299,156.097 184.5,157C 186.9,157.186 189.234,157.686 191.5,158.5C 192.833,160.5 194.167,162.5 195.5,164.5C 196.325,165.386 197.325,165.719 198.5,165.5C 198.007,163.194 197.674,160.861 197.5,158.5 Z"/></g>
<g><path style="opacity:0.553" fill="#99a2c0" d="M 12.5,152.5 C 11.6261,155.789 10.9595,159.123 10.5,162.5C 10.1667,162.5 9.83333,162.5 9.5,162.5C 9.32003,158.714 10.32,155.381 12.5,152.5 Z"/></g>
<g><path style="opacity:0.969" fill="#aac7a7" d="M 15.5,155.5 C 14.4111,160.767 12.7444,165.767 10.5,170.5C 10.6741,168.139 11.0074,165.806 11.5,163.5C 12.6414,160.746 13.9748,158.079 15.5,155.5 Z"/></g>
<g><path style="opacity:1" fill="#529a45" d="M 125.5,148.5 C 126.9,150.016 128.233,151.683 129.5,153.5C 130.325,154.386 131.325,154.719 132.5,154.5C 133.537,155.93 134.204,157.597 134.5,159.5C 134.5,160.833 134.5,162.167 134.5,163.5C 133.859,164.482 133.193,165.482 132.5,166.5C 128.555,167.491 124.555,167.824 120.5,167.5C 120.778,165.654 120.111,164.32 118.5,163.5C 117.571,164.689 117.238,166.022 117.5,167.5C 111.903,166.802 106.736,167.802 102,170.5C 101.667,169.167 101.333,167.833 101,166.5C 100.28,168.056 99.1132,169.056 97.5,169.5C 96.3081,165.311 95.6414,161.145 95.5,157C 96.7702,156.1 97.7702,154.934 98.5,153.5C 99.3857,154.325 99.719,155.325 99.5,156.5C 105.008,154.975 110.674,154.142 116.5,154C 116.957,153.586 117.291,153.086 117.5,152.5C 112.198,151.671 106.864,151.171 101.5,151C 106.5,150.667 111.5,150.333 116.5,150C 117.981,149.02 119.315,147.853 120.5,146.5C 122.075,147.456 123.742,148.123 125.5,148.5 Z"/></g>
<g><path style="opacity:0.922" fill="#e8a286" d="M 148.5,157.5 C 148.5,158.833 148.5,160.167 148.5,161.5C 147.833,161.833 147.167,162.167 146.5,162.5C 146.796,160.597 147.463,158.93 148.5,157.5 Z"/></g>
<g><path style="opacity:0.004" fill="#fdfefd" d="M 10.5,162.5 C 11.1667,162.5 11.5,162.833 11.5,163.5C 11.1667,163.167 10.8333,162.833 10.5,162.5 Z"/></g>
<g><path style="opacity:1" fill="#529a44" d="M 47.5,163.5 C 46.6851,162.571 45.8518,161.571 45,160.5C 44.3333,161.833 43.6667,161.833 43,160.5C 40.6623,164.095 38.829,167.928 37.5,172C 31.8333,172.667 26.1667,172.667 20.5,172C 17.9844,167.636 16.151,168.136 15,173.5C 14,172.833 13,172.167 12,171.5C 11.7679,172.737 11.2679,173.737 10.5,174.5C 10.5,173.167 10.5,171.833 10.5,170.5C 12.7444,165.767 14.4111,160.767 15.5,155.5C 17.4077,154.514 18.4077,152.848 18.5,150.5C 19.7498,150.423 20.5831,149.756 21,148.5C 21.49,149.793 21.6567,151.127 21.5,152.5C 29.0008,152.333 36.3341,152.333 43.5,152.5C 43.5,151.5 43.5,150.5 43.5,149.5C 44.5,149.5 45.5,149.5 46.5,149.5C 46.1729,151.488 45.8396,153.488 45.5,155.5C 45.9537,157.694 46.9537,159.527 48.5,161C 48.2568,161.902 47.9234,162.735 47.5,163.5 Z"/></g>
<g><path style="opacity:1" fill="#de5202" d="M 249.5,190.5 C 248.778,190.082 248.278,189.416 248,188.5C 247.71,190.92 247.21,193.254 246.5,195.5C 246.144,197.19 245.144,198.19 243.5,198.5C 245.935,192.26 246.102,185.927 244,179.5C 238.4,170.075 231.566,161.741 223.5,154.5C 217.913,162.001 213.079,170.001 209,178.5C 209.01,184.378 208.843,190.211 208.5,196C 209.414,197.406 210.08,198.906 210.5,200.5C 209.542,200.047 208.708,199.381 208,198.5C 207.091,192.514 206.257,186.514 205.5,180.5C 204.833,183.167 204.167,185.833 203.5,188.5C 201.684,189.735 200.017,189.735 198.5,188.5C 199.5,188.5 200.5,188.5 201.5,188.5C 201.457,185.09 201.957,181.757 203,178.5C 208.667,169.5 214.333,160.5 220,151.5C 220.777,149.785 222.11,148.785 224,148.5C 231.641,155.48 238.641,163.146 245,171.5C 248.231,177.423 249.731,183.757 249.5,190.5 Z"/></g>
<g><path style="opacity:0.859" fill="#7a80b0" d="M 1.5,162.5 C 3.16276,164.438 3.82943,166.772 3.5,169.5C 2.38815,167.401 1.72148,165.067 1.5,162.5 Z"/></g>
<g><path style="opacity:0.573" fill="#b3cbaf" d="M 134.5,159.5 C 135.924,161.515 136.59,163.848 136.5,166.5C 135.833,165.5 135.167,164.5 134.5,163.5C 134.5,162.167 134.5,160.833 134.5,159.5 Z"/></g>
<g><path style="opacity:1" fill="#faed38" d="M 98.5,182.5 C 96.4111,186.501 95.0777,190.835 94.5,195.5C 93.7784,195.918 93.2784,196.584 93,197.5C 92.8213,193.975 92.3213,190.641 91.5,187.5C 91.5,186.167 91.5,184.833 91.5,183.5C 81.5486,181.686 71.2152,180.853 60.5,181C 58.9391,180.682 57.7724,179.849 57,178.5C 55.7365,180.607 53.9032,181.607 51.5,181.5C 51.5,180.167 51.5,178.833 51.5,177.5C 61.1724,177.666 70.8391,177.5 80.5,177C 82.1749,176.015 83.8415,175.181 85.5,174.5C 86.0431,174.44 86.3764,174.107 86.5,173.5C 84.0322,167.772 82.6989,161.772 82.5,155.5C 81.5,155.5 80.5,155.5 79.5,155.5C 79.6658,160.179 79.4992,164.845 79,169.5C 75.6621,172.318 71.8288,173.151 67.5,172C 66.944,171.617 66.6107,171.117 66.5,170.5C 66.5307,166.516 65.864,162.683 64.5,159C 64.8333,158.667 65.1667,158.333 65.5,158C 64.3826,156.108 62.7159,155.275 60.5,155.5C 60.9565,152.594 61.9565,149.928 63.5,147.5C 67.0268,144.871 71.0268,144.038 75.5,145C 90.9473,152.728 98.614,165.228 98.5,182.5 Z"/></g>
<g><path style="opacity:1" fill="#e84f12" d="M 240.5,239.5 C 240.5,239.833 240.5,240.167 240.5,240.5C 240.158,241.338 239.492,241.672 238.5,241.5C 237.5,241.5 236.5,241.5 235.5,241.5C 233.5,241.5 231.5,241.5 229.5,241.5C 229.5,240.167 229.5,238.833 229.5,237.5C 226.813,237.664 224.146,237.497 221.5,237C 219.893,235.951 219.227,234.451 219.5,232.5C 218.167,232.5 216.833,232.5 215.5,232.5C 214.04,230.274 213.04,228.107 212.5,226C 207.857,223.019 203.524,219.685 199.5,216C 182.08,199.243 164.747,182.577 147.5,166C 148.38,164.644 148.714,163.144 148.5,161.5C 148.5,160.167 148.5,158.833 148.5,157.5C 148.328,156.508 148.662,155.842 149.5,155.5C 149.833,155.5 150.167,155.5 150.5,155.5C 150.843,157.225 151.843,157.725 153.5,157C 154.304,155.229 155.471,153.729 157,152.5C 157.167,153.167 157.333,153.833 157.5,154.5C 155.955,156.543 154.621,158.71 153.5,161C 153.833,161.833 154.167,162.667 154.5,163.5C 155.968,161.667 157.635,161.334 159.5,162.5C 157.744,164.191 157.244,166.191 158,168.5C 172.839,183.005 188.006,197.172 203.5,211C 204.766,211.309 205.933,211.809 207,212.5C 207.71,211.027 208.876,210.36 210.5,210.5C 210.343,211.873 210.51,213.207 211,214.5C 215.833,219.333 220.667,224.167 225.5,229C 226.793,229.49 228.127,229.657 229.5,229.5C 229.297,231.39 229.963,232.89 231.5,234C 233.916,234.661 235.582,236.161 236.5,238.5C 237.689,239.429 239.022,239.762 240.5,239.5 Z"/></g>
<g><path style="opacity:0.51" fill="#ebc1ad" d="M 146.5,162.5 C 146.5,163.833 146.5,165.167 146.5,166.5C 145.833,167.5 145.167,168.5 144.5,169.5C 144.41,166.848 145.076,164.515 146.5,162.5 Z"/></g>
<g><path style="opacity:0.086" fill="#c4cad8" d="M 9.5,163.5 C 9.59047,166.152 8.92381,168.485 7.5,170.5C 7.40953,167.848 8.07619,165.515 9.5,163.5 Z"/></g>
<g><path style="opacity:0.141" fill="#f3cec0" d="M 285.5,162.5 C 284.729,170.916 282.729,178.916 279.5,186.5C 281.212,178.32 283.212,170.32 285.5,162.5 Z"/></g>
<g><path style="opacity:1" fill="#f3ed3f" d="M 63.5,147.5 C 61.9565,149.928 60.9565,152.594 60.5,155.5C 62.7159,155.275 64.3826,156.108 65.5,158C 65.1667,158.333 64.8333,158.667 64.5,159C 65.864,162.683 66.5307,166.516 66.5,170.5C 62.4283,152.535 59.9283,152.535 59,170.5C 56.5938,171.565 54.4271,172.898 52.5,174.5C 63.6523,175.608 74.6523,175.608 85.5,174.5C 83.8415,175.181 82.1749,176.015 80.5,177C 70.8391,177.5 61.1724,177.666 51.5,177.5C 51.5,178.833 51.5,180.167 51.5,181.5C 53.9032,181.607 55.7365,180.607 57,178.5C 57.7724,179.849 58.9391,180.682 60.5,181C 71.2152,180.853 81.5486,181.686 91.5,183.5C 78.6557,183.171 65.989,183.505 53.5,184.5C 51.7202,185.99 51.0535,187.99 51.5,190.5C 51.7373,191.791 51.404,192.791 50.5,193.5C 49.2173,188.649 47.5507,183.982 45.5,179.5C 45.8864,177.068 46.5531,174.734 47.5,172.5C 48.6984,161.614 54.0317,153.28 63.5,147.5 Z"/></g>
<g><path style="opacity:1" fill="#feeb36" d="M 243.5,198.5 C 233.13,208.502 222.13,209.169 210.5,200.5C 210.08,198.906 209.414,197.406 208.5,196C 208.843,190.211 209.01,184.378 209,178.5C 213.079,170.001 217.913,162.001 223.5,154.5C 231.566,161.741 238.4,170.075 244,179.5C 246.102,185.927 245.935,192.26 243.5,198.5 Z"/></g>
<g><path style="opacity:1" fill="#e95e1f" d="M 148.5,161.5 C 148.714,163.144 148.38,164.644 147.5,166C 164.747,182.577 182.08,199.243 199.5,216C 203.524,219.685 207.857,223.019 212.5,226C 213.04,228.107 214.04,230.274 215.5,232.5C 216.833,232.5 218.167,232.5 219.5,232.5C 219.227,234.451 219.893,235.951 221.5,237C 224.146,237.497 226.813,237.664 229.5,237.5C 229.5,238.833 229.5,240.167 229.5,241.5C 231.5,241.5 233.5,241.5 235.5,241.5C 234.07,242.537 232.403,243.204 230.5,243.5C 229.033,243.106 227.533,242.773 226,242.5C 223.719,244.028 221.219,244.528 218.5,244C 217.167,242.667 217.167,241.333 218.5,240C 216.913,239.138 215.246,238.471 213.5,238C 193.087,218.251 172.754,198.584 152.5,179C 150.975,177.991 149.308,177.491 147.5,177.5C 147.058,173.846 146.724,170.179 146.5,166.5C 146.5,165.167 146.5,163.833 146.5,162.5C 147.167,162.167 147.833,161.833 148.5,161.5 Z"/></g>
<g><path style="opacity:1" fill="#c0ce2a" d="M 85.5,174.5 C 74.6523,175.608 63.6523,175.608 52.5,174.5C 54.4271,172.898 56.5938,171.565 59,170.5C 59.9283,152.535 62.4283,152.535 66.5,170.5C 66.6107,171.117 66.944,171.617 67.5,172C 71.8288,173.151 75.6621,172.318 79,169.5C 79.4992,164.845 79.6658,160.179 79.5,155.5C 80.5,155.5 81.5,155.5 82.5,155.5C 82.6989,161.772 84.0322,167.772 86.5,173.5C 86.3764,174.107 86.0431,174.44 85.5,174.5 Z"/></g>
<g><path style="opacity:1" fill="#478f3b" d="M 47.5,163.5 C 47.5,166.5 47.5,169.5 47.5,172.5C 46.5531,174.734 45.8864,177.068 45.5,179.5C 47.5507,183.982 49.2173,188.649 50.5,193.5C 51.0352,197.309 52.0352,200.976 53.5,204.5C 51.5585,202.107 49.5585,199.607 47.5,197C 49.31,192.182 48.31,188.015 44.5,184.5C 43.5713,185.689 43.238,187.022 43.5,188.5C 46.8384,188.849 47.8384,190.516 46.5,193.5C 45.1861,192.687 44.0195,191.687 43,190.5C 41.643,192.735 41.8096,195.069 43.5,197.5C 43.1667,197.833 42.8333,198.167 42.5,198.5C 40.4884,195.795 38.4884,193.128 36.5,190.5C 38.0453,189.548 39.712,189.215 41.5,189.5C 41.7135,187.856 41.3802,186.356 40.5,185C 33.744,184.387 27.0773,184.887 20.5,186.5C 19.8333,186.167 19.1667,185.833 18.5,185.5C 17.5008,188.161 16.5008,190.828 15.5,193.5C 14.3112,194.429 12.9778,194.762 11.5,194.5C 11.8333,196.5 12.1667,198.5 12.5,200.5C 14.1439,200.714 15.6439,200.38 17,199.5C 17.1881,201.061 16.3547,201.728 14.5,201.5C 14.5,203.5 14.5,205.5 14.5,207.5C 12.3987,204.203 11.0653,200.537 10.5,196.5C 9.27628,189.158 9.27628,181.824 10.5,174.5C 11.2679,173.737 11.7679,172.737 12,171.5C 13,172.167 14,172.833 15,173.5C 16.151,168.136 17.9844,167.636 20.5,172C 26.1667,172.667 31.8333,172.667 37.5,172C 38.829,167.928 40.6623,164.095 43,160.5C 43.6667,161.833 44.3333,161.833 45,160.5C 45.8518,161.571 46.6851,162.571 47.5,163.5 Z"/></g>
<g><path style="opacity:1" fill="#ea6e2f" d="M 146.5,166.5 C 146.724,170.179 147.058,173.846 147.5,177.5C 149.308,177.491 150.975,177.991 152.5,179C 172.754,198.584 193.087,218.251 213.5,238C 215.246,238.471 216.913,239.138 218.5,240C 217.167,241.333 217.167,242.667 218.5,244C 221.219,244.528 223.719,244.028 226,242.5C 227.533,242.773 229.033,243.106 230.5,243.5C 230.5,243.833 230.5,244.167 230.5,244.5C 229.432,245.434 228.099,245.768 226.5,245.5C 220.132,245.83 213.798,245.496 207.5,244.5C 205.471,240.304 202.304,237.304 198,235.5C 197.833,232.667 196.333,231.167 193.5,231C 178.858,215.602 163.691,200.769 148,186.5C 147.333,187.833 146.667,187.833 146,186.5C 145.096,180.865 144.596,175.198 144.5,169.5C 145.167,168.5 145.833,167.5 146.5,166.5 Z"/></g>
<g><path style="opacity:1" fill="#448c39" d="M 134.5,163.5 C 135.167,164.5 135.833,165.5 136.5,166.5C 136.527,172.051 137.194,177.384 138.5,182.5C 139.473,184.948 139.806,187.615 139.5,190.5C 139.5,191.167 139.5,191.833 139.5,192.5C 138.075,189.769 136.241,188.103 134,187.5C 124.206,188.354 114.373,189.354 104.5,190.5C 101.659,189.017 99.1586,189.35 97,191.5C 97.0302,194.361 96.1969,196.695 94.5,198.5C 94.5,197.5 94.5,196.5 94.5,195.5C 95.0777,190.835 96.4111,186.501 98.5,182.5C 99.9648,178.125 99.6314,173.792 97.5,169.5C 99.1132,169.056 100.28,168.056 101,166.5C 101.333,167.833 101.667,169.167 102,170.5C 106.736,167.802 111.903,166.802 117.5,167.5C 117.238,166.022 117.571,164.689 118.5,163.5C 120.111,164.32 120.778,165.654 120.5,167.5C 124.555,167.824 128.555,167.491 132.5,166.5C 133.193,165.482 133.859,164.482 134.5,163.5 Z"/></g>
<g><path style="opacity:0.635" fill="#b3c8b1" d="M 136.5,166.5 C 138.178,171.568 138.844,176.902 138.5,182.5C 137.194,177.384 136.527,172.051 136.5,166.5 Z"/></g>
<g><path style="opacity:1" fill="#6e951d" d="M 53.5,184.5 C 65.989,183.505 78.6557,183.171 91.5,183.5C 91.5,184.833 91.5,186.167 91.5,187.5C 90.4664,186.313 89.133,185.48 87.5,185C 76.1716,184.5 64.8382,184.333 53.5,184.5 Z"/></g>
<g><path style="opacity:1" fill="#fed838" d="M 252.5,147.5 C 257.286,153.952 259.619,161.286 259.5,169.5C 260.144,176.597 258.478,182.93 254.5,188.5C 256.307,182.938 257.641,177.272 258.5,171.5C 257.21,166.07 255.877,159.904 254.5,153C 253.616,151.902 252.616,151.402 251.5,151.5C 252.246,150.264 252.579,148.93 252.5,147.5 Z"/></g>
<g><path style="opacity:0.084" fill="#dee8dd" d="M 10.5,170.5 C 10.5,171.833 10.5,173.167 10.5,174.5C 9.27628,181.824 9.27628,189.158 10.5,196.5C 7.927,187.845 7.927,179.178 10.5,170.5 Z"/></g>
<g><path style="opacity:1" fill="#367e2b" d="M 53.5,184.5 C 64.8382,184.333 76.1716,184.5 87.5,185C 89.133,185.48 90.4664,186.313 91.5,187.5C 92.8445,207.993 83.5111,216.16 63.5,212C 56.751,206.332 52.751,199.166 51.5,190.5C 51.0535,187.99 51.7202,185.99 53.5,184.5 Z"/></g>
<g><path style="opacity:0.004" fill="#f7dbd2" d="M 278.5,189.5 C 278.585,192.649 277.585,195.316 275.5,197.5C 275.433,196.041 275.766,194.708 276.5,193.5C 276.989,192.005 277.655,190.671 278.5,189.5 Z"/></g>
<g><path style="opacity:1" fill="#eb8245" d="M 144.5,169.5 C 144.596,175.198 145.096,180.865 146,186.5C 146.667,187.833 147.333,187.833 148,186.5C 163.691,200.769 178.858,215.602 193.5,231C 196.333,231.167 197.833,232.667 198,235.5C 202.304,237.304 205.471,240.304 207.5,244.5C 213.798,245.496 220.132,245.83 226.5,245.5C 221.075,246.984 215.409,247.651 209.5,247.5C 205.651,247.499 201.984,247.165 198.5,246.5C 195.781,245.087 192.781,244.42 189.5,244.5C 187.316,242.415 184.649,241.415 181.5,241.5C 179.847,241.34 178.514,240.674 177.5,239.5C 177.027,238.094 176.027,237.427 174.5,237.5C 174.027,236.094 173.027,235.427 171.5,235.5C 171.027,234.094 170.027,233.427 168.5,233.5C 167.089,231.086 165.089,229.419 162.5,228.5C 160.5,227.167 158.833,225.5 157.5,223.5C 157.573,221.973 156.906,220.973 155.5,220.5C 154.833,220.5 154.5,220.167 154.5,219.5C 153.16,214.652 150.827,210.319 147.5,206.5C 146.456,201.645 145.123,196.978 143.5,192.5C 142.836,189.854 142.502,187.021 142.5,184C 142.405,178.921 143.072,174.088 144.5,169.5 Z"/></g>
<g><path style="opacity:0.09" fill="#f3ddd0" d="M 143.5,192.5 C 145.123,196.978 146.456,201.645 147.5,206.5C 144.944,202.288 143.61,197.622 143.5,192.5 Z"/></g>
<g><path style="opacity:1" fill="#e84003" d="M 197.5,158.5 C 197.674,160.861 198.007,163.194 198.5,165.5C 197.325,165.719 196.325,165.386 195.5,164.5C 194.167,162.5 192.833,160.5 191.5,158.5C 189.234,157.686 186.9,157.186 184.5,157C 183.299,156.097 182.465,154.931 182,153.5C 180.812,154.563 180.312,155.897 180.5,157.5C 181.5,157.5 182.5,157.5 183.5,157.5C 185.563,166.079 188.396,174.412 192,182.5C 193.044,183.623 193.71,184.956 194,186.5C 194.816,187.823 195.983,188.489 197.5,188.5C 197.833,188.5 198.167,188.5 198.5,188.5C 200.017,189.735 201.684,189.735 203.5,188.5C 204.167,185.833 204.833,183.167 205.5,180.5C 206.257,186.514 207.091,192.514 208,198.5C 208.708,199.381 209.542,200.047 210.5,200.5C 222.13,209.169 233.13,208.502 243.5,198.5C 245.144,198.19 246.144,197.19 246.5,195.5C 248.591,194.135 250.924,193.468 253.5,193.5C 253.338,195.527 253.505,197.527 254,199.5C 256.134,196.756 258.301,194.089 260.5,191.5C 261.833,193.5 261.833,195.5 260.5,197.5C 259.604,196.494 258.938,196.494 258.5,197.5C 259.836,199.24 261.17,200.907 262.5,202.5C 263.462,197.76 264.962,197.427 267,201.5C 267.711,199.633 267.211,198.133 265.5,197C 266.354,195.978 267.354,195.145 268.5,194.5C 270.271,195.035 270.604,195.869 269.5,197C 270.793,197.49 272.127,197.657 273.5,197.5C 273.088,195.027 274.088,193.694 276.5,193.5C 275.766,194.708 275.433,196.041 275.5,197.5C 273.956,202.919 271.622,207.919 268.5,212.5C 267.094,212.973 266.427,213.973 266.5,215.5C 265.094,215.973 264.427,216.973 264.5,218.5C 263.876,220.754 262.543,222.421 260.5,223.5C 259.5,223.833 258.833,224.5 258.5,225.5C 253.585,225.076 251.585,227.076 252.5,231.5C 251.5,231.833 250.833,232.5 250.5,233.5C 249.167,233.5 247.833,233.5 246.5,233.5C 246.567,234.959 246.234,236.292 245.5,237.5C 245.158,238.338 244.492,238.672 243.5,238.5C 242.391,238.557 241.391,238.89 240.5,239.5C 239.022,239.762 237.689,239.429 236.5,238.5C 235.582,236.161 233.916,234.661 231.5,234C 229.963,232.89 229.297,231.39 229.5,229.5C 228.127,229.657 226.793,229.49 225.5,229C 220.667,224.167 215.833,219.333 211,214.5C 210.51,213.207 210.343,211.873 210.5,210.5C 208.876,210.36 207.71,211.027 207,212.5C 205.933,211.809 204.766,211.309 203.5,211C 188.006,197.172 172.839,183.005 158,168.5C 157.244,166.191 157.744,164.191 159.5,162.5C 157.635,161.334 155.968,161.667 154.5,163.5C 154.167,162.667 153.833,161.833 153.5,161C 154.621,158.71 155.955,156.543 157.5,154.5C 157.333,153.833 157.167,153.167 157,152.5C 155.471,153.729 154.304,155.229 153.5,157C 151.843,157.725 150.843,157.225 150.5,155.5C 151.11,154.609 151.443,153.609 151.5,152.5C 152.906,152.027 153.573,151.027 153.5,149.5C 154.906,149.027 155.573,148.027 155.5,146.5C 158.243,144.761 160.243,142.427 161.5,139.5C 164.089,138.581 166.089,136.914 167.5,134.5C 169.404,134.262 170.738,133.262 171.5,131.5C 173.027,131.573 174.027,130.906 174.5,129.5C 176.027,129.573 177.027,128.906 177.5,127.5C 179.027,127.573 180.027,126.906 180.5,125.5C 181.167,125.5 181.833,125.5 182.5,125.5C 184.044,125.297 185.378,124.63 186.5,123.5C 187.328,124.415 188.328,125.081 189.5,125.5C 191.323,124.246 193.323,123.246 195.5,122.5C 198.124,122.289 199.79,123.456 200.5,126C 198.798,127.583 197.464,127.083 196.5,124.5C 195.618,125.76 194.618,126.926 193.5,128C 190.774,128.182 188.107,128.682 185.5,129.5C 183.667,130.968 183.334,132.635 184.5,134.5C 188.771,131.442 193.438,129.609 198.5,129C 196.295,130.706 193.962,132.206 191.5,133.5C 192.32,135.111 193.654,135.778 195.5,135.5C 195.281,134.325 195.614,133.325 196.5,132.5C 198.048,134.922 199.714,134.922 201.5,132.5C 201.833,132.833 202.167,133.167 202.5,133.5C 201.147,134.524 200.48,135.857 200.5,137.5C 199.178,137.33 198.011,137.663 197,138.5C 196.179,145.346 196.346,152.013 197.5,158.5 Z"/></g>
<g><path style="opacity:1" fill="#89a985" d="M 139.5,190.5 C 140.657,193.273 141.324,196.273 141.5,199.5C 141.167,199.5 140.833,199.5 140.5,199.5C 139.631,197.283 139.298,194.95 139.5,192.5C 139.5,191.833 139.5,191.167 139.5,190.5 Z"/></g>
<g><path style="opacity:1" fill="#317b29" d="M 139.5,192.5 C 139.298,194.95 139.631,197.283 140.5,199.5C 140.799,201.604 140.466,203.604 139.5,205.5C 136.662,201.426 135.162,202.092 135,207.5C 133.667,205.167 131.667,204.167 129,204.5C 124.646,205.672 120.313,205.672 116,204.5C 110.075,207.852 104.908,207.185 100.5,202.5C 99.6725,206.947 98.0058,210.947 95.5,214.5C 90.3822,215.021 88.3822,213.021 89.5,208.5C 91.1861,205.128 92.8527,201.795 94.5,198.5C 96.1969,196.695 97.0302,194.361 97,191.5C 99.1586,189.35 101.659,189.017 104.5,190.5C 114.373,189.354 124.206,188.354 134,187.5C 136.241,188.103 138.075,189.769 139.5,192.5 Z"/></g>
<g><path style="opacity:1" fill="#337d2c" d="M 53.5,204.5 C 54.4884,205.795 55.4884,207.128 56.5,208.5C 55.4415,209.6 54.6082,210.934 54,212.5C 50.4637,210.148 46.6304,208.482 42.5,207.5C 40.8839,208.115 39.5505,209.115 38.5,210.5C 37.6919,210.192 37.0253,209.692 36.5,209C 31.2497,208.807 26.083,208.307 21,207.5C 19.4412,209.217 18.6079,211.217 18.5,213.5C 18.5,214.167 18.1667,214.5 17.5,214.5C 17.1667,213.833 16.8333,213.167 16.5,212.5C 16.5979,210.447 15.9313,208.78 14.5,207.5C 14.5,205.5 14.5,203.5 14.5,201.5C 16.3547,201.728 17.1881,201.061 17,199.5C 15.6439,200.38 14.1439,200.714 12.5,200.5C 12.1667,198.5 11.8333,196.5 11.5,194.5C 12.9778,194.762 14.3112,194.429 15.5,193.5C 16.5008,190.828 17.5008,188.161 18.5,185.5C 19.1667,185.833 19.8333,186.167 20.5,186.5C 27.0773,184.887 33.744,184.387 40.5,185C 41.3802,186.356 41.7135,187.856 41.5,189.5C 39.712,189.215 38.0453,189.548 36.5,190.5C 38.4884,193.128 40.4884,195.795 42.5,198.5C 42.8333,198.167 43.1667,197.833 43.5,197.5C 41.8096,195.069 41.643,192.735 43,190.5C 44.0195,191.687 45.1861,192.687 46.5,193.5C 47.8384,190.516 46.8384,188.849 43.5,188.5C 43.238,187.022 43.5713,185.689 44.5,184.5C 48.31,188.015 49.31,192.182 47.5,197C 49.5585,199.607 51.5585,202.107 53.5,204.5 Z"/></g>
<g><path style="opacity:0.647" fill="#c0cbba" d="M 141.5,199.5 C 142.612,201.599 143.279,203.933 143.5,206.5C 141.837,204.562 141.171,202.228 141.5,199.5 Z"/></g>
<g><path style="opacity:0.282" fill="#c5d5c5" d="M 14.5,207.5 C 15.9313,208.78 16.5979,210.447 16.5,212.5C 15.0687,211.22 14.4021,209.553 14.5,207.5 Z"/></g>
<g><path style="opacity:1" fill="#63905f" d="M 18.5,213.5 C 20.3897,216.569 22.5564,219.569 25,222.5C 25.49,223.793 25.6567,225.127 25.5,226.5C 22.3504,222.881 19.6837,218.881 17.5,214.5C 18.1667,214.5 18.5,214.167 18.5,213.5 Z"/></g>
<g><path style="opacity:1" fill="#cee254" d="M 91.5,187.5 C 92.3213,190.641 92.8213,193.975 93,197.5C 93.2784,196.584 93.7784,195.918 94.5,195.5C 94.5,196.5 94.5,197.5 94.5,198.5C 92.8527,201.795 91.1861,205.128 89.5,208.5C 87.9575,210.396 86.2908,212.229 84.5,214C 76.964,214.216 69.464,214.716 62,215.5C 60.167,213.168 58.3337,210.834 56.5,208.5C 55.4884,207.128 54.4884,205.795 53.5,204.5C 52.0352,200.976 51.0352,197.309 50.5,193.5C 51.404,192.791 51.7373,191.791 51.5,190.5C 52.751,199.166 56.751,206.332 63.5,212C 83.5111,216.16 92.8445,207.993 91.5,187.5 Z"/></g>
<g><path style="opacity:1" fill="#eeb390" d="M 147.5,206.5 C 150.827,210.319 153.16,214.652 154.5,219.5C 150.924,215.901 148.59,211.568 147.5,206.5 Z"/></g>
<g><path style="opacity:0.078" fill="#f9e3dc" d="M 268.5,212.5 C 268.573,214.027 267.906,215.027 266.5,215.5C 266.427,213.973 267.094,212.973 268.5,212.5 Z"/></g>
<g><path style="opacity:0.012" fill="#f7dbd3" d="M 266.5,215.5 C 266.573,217.027 265.906,218.027 264.5,218.5C 264.427,216.973 265.094,215.973 266.5,215.5 Z"/></g>
<g><path style="opacity:1" fill="#277020" d="M 140.5,199.5 C 140.833,199.5 141.167,199.5 141.5,199.5C 141.171,202.228 141.837,204.562 143.5,206.5C 143.5,207.167 143.5,207.833 143.5,208.5C 143.517,210.565 143.85,212.565 144.5,214.5C 143.153,213.829 141.986,213.829 141,214.5C 140.417,212.998 139.584,211.665 138.5,210.5C 137.646,211.522 136.646,212.355 135.5,213C 129.509,213.499 123.509,213.666 117.5,213.5C 117.5,214.5 117.5,215.5 117.5,216.5C 113.527,215.744 109.694,215.41 106,215.5C 104.188,215.493 102.688,216.16 101.5,217.5C 103.8,219.389 106.466,220.723 109.5,221.5C 109.328,225.22 111.161,227.887 115,229.5C 116.534,232.353 118.034,235.186 119.5,238C 119.272,238.399 118.938,238.565 118.5,238.5C 118.167,238.5 117.833,238.5 117.5,238.5C 116.546,233.711 113.879,230.211 109.5,228C 102.415,225.379 95.2482,222.879 88,220.5C 81.86,226.991 74.36,229.491 65.5,228C 63.1558,227.163 61.1558,225.829 59.5,224C 56.1667,223.333 52.8333,223.333 49.5,224C 43.4235,227.705 37.0901,230.872 30.5,233.5C 28.4525,231.45 26.7859,229.117 25.5,226.5C 25.6567,225.127 25.49,223.793 25,222.5C 22.5564,219.569 20.3897,216.569 18.5,213.5C 18.6079,211.217 19.4412,209.217 21,207.5C 26.083,208.307 31.2497,208.807 36.5,209C 37.0253,209.692 37.6919,210.192 38.5,210.5C 39.5505,209.115 40.8839,208.115 42.5,207.5C 46.6304,208.482 50.4637,210.148 54,212.5C 54.6082,210.934 55.4415,209.6 56.5,208.5C 58.3337,210.834 60.167,213.168 62,215.5C 69.464,214.716 76.964,214.216 84.5,214C 86.2908,212.229 87.9575,210.396 89.5,208.5C 88.3822,213.021 90.3822,215.021 95.5,214.5C 98.0058,210.947 99.6725,206.947 100.5,202.5C 104.908,207.185 110.075,207.852 116,204.5C 120.313,205.672 124.646,205.672 129,204.5C 131.667,204.167 133.667,205.167 135,207.5C 135.162,202.092 136.662,201.426 139.5,205.5C 140.466,203.604 140.799,201.604 140.5,199.5 Z"/></g>
<g><path style="opacity:0.965" fill="#61875a" d="M 143.5,208.5 C 146.084,212.666 148.417,217 150.5,221.5C 147.465,220.1 145.465,217.767 144.5,214.5C 143.85,212.565 143.517,210.565 143.5,208.5 Z"/></g>
<g><path style="opacity:1" fill="#1f6a1d" d="M 144.5,214.5 C 145.465,217.767 147.465,220.1 150.5,221.5C 150.427,223.027 151.094,224.027 152.5,224.5C 153.419,227.089 155.086,229.089 157.5,230.5C 159.167,231.5 160.5,232.833 161.5,234.5C 161.973,235.906 162.973,236.573 164.5,236.5C 169.92,240.594 175.587,244.261 181.5,247.5C 182.552,249.256 184.219,249.923 186.5,249.5C 186.833,249.5 187.167,249.5 187.5,249.5C 193.282,252.858 199.616,254.191 206.5,253.5C 210.646,254.647 214.98,254.814 219.5,254C 220.416,253.722 221.082,253.222 221.5,252.5C 225.761,252.102 229.761,251.102 233.5,249.5C 233.833,249.5 234.167,249.5 234.5,249.5C 236.179,249.285 237.179,249.952 237.5,251.5C 235.249,254.295 232.582,256.628 229.5,258.5C 227.883,257.962 226.216,257.629 224.5,257.5C 224.634,259.292 224.301,260.958 223.5,262.5C 221.184,261.64 218.851,261.14 216.5,261C 217.308,261.308 217.975,261.808 218.5,262.5C 215.658,263.004 214.325,264.671 214.5,267.5C 213.5,267.833 212.833,268.5 212.5,269.5C 210.784,271.025 208.784,272.025 206.5,272.5C 204.62,272.229 203.287,272.896 202.5,274.5C 200.95,275.441 199.284,276.107 197.5,276.5C 190.576,277.145 183.909,278.645 177.5,281C 175.41,281.669 173.743,282.836 172.5,284.5C 170.283,285.369 167.95,285.702 165.5,285.5C 152.185,286.333 138.851,286.666 125.5,286.5C 123.861,277.635 123.028,268.635 123,259.5C 122.187,252.328 120.687,245.328 118.5,238.5C 118.938,238.565 119.272,238.399 119.5,238C 118.034,235.186 116.534,232.353 115,229.5C 111.161,227.887 109.328,225.22 109.5,221.5C 106.466,220.723 103.8,219.389 101.5,217.5C 102.688,216.16 104.188,215.493 106,215.5C 109.694,215.41 113.527,215.744 117.5,216.5C 117.5,215.5 117.5,214.5 117.5,213.5C 123.509,213.666 129.509,213.499 135.5,213C 136.646,212.355 137.646,211.522 138.5,210.5C 139.584,211.665 140.417,212.998 141,214.5C 141.986,213.829 143.153,213.829 144.5,214.5 Z"/></g>
<g><path style="opacity:0.02" fill="#f5e3da" d="M 155.5,220.5 C 156.906,220.973 157.573,221.973 157.5,223.5C 156.094,223.027 155.427,222.027 155.5,220.5 Z"/></g>
<g><path style="opacity:0.549" fill="#9eb49b" d="M 150.5,221.5 C 151.906,221.973 152.573,222.973 152.5,224.5C 151.094,224.027 150.427,223.027 150.5,221.5 Z"/></g>
<g><path style="opacity:0.012" fill="#f6d6ce" d="M 260.5,223.5 C 260.573,225.027 259.906,226.027 258.5,226.5C 258.5,226.167 258.5,225.833 258.5,225.5C 258.833,224.5 259.5,223.833 260.5,223.5 Z"/></g>
<g><path style="opacity:0.91" fill="#94ad91" d="M 152.5,224.5 C 154.914,225.911 156.581,227.911 157.5,230.5C 155.086,229.089 153.419,227.089 152.5,224.5 Z"/></g>
<g><path style="opacity:1" fill="#ed6d42" d="M 258.5,225.5 C 258.5,225.833 258.5,226.167 258.5,226.5C 257.167,228.5 255.5,230.167 253.5,231.5C 253.167,231.5 252.833,231.5 252.5,231.5C 251.585,227.076 253.585,225.076 258.5,225.5 Z"/></g>
<g><path style="opacity:0.757" fill="#f1d2bf" d="M 162.5,228.5 C 165.089,229.419 167.089,231.086 168.5,233.5C 165.911,232.581 163.911,230.914 162.5,228.5 Z"/></g>
<g><path style="opacity:0.039" fill="#f8d8cf" d="M 252.5,231.5 C 252.833,231.5 253.167,231.5 253.5,231.5C 253.027,232.906 252.027,233.573 250.5,233.5C 250.833,232.5 251.5,231.833 252.5,231.5 Z"/></g>
<g><path style="opacity:0.02" fill="#cad6ca" d="M 161.5,234.5 C 163.027,234.427 164.027,235.094 164.5,236.5C 162.973,236.573 161.973,235.906 161.5,234.5 Z"/></g>
<g><path style="opacity:0.482" fill="#eecfc0" d="M 168.5,233.5 C 170.027,233.427 171.027,234.094 171.5,235.5C 169.973,235.573 168.973,234.906 168.5,233.5 Z"/></g>
<g><path style="opacity:1" fill="#f19271" d="M 250.5,233.5 C 249.415,235.587 247.749,236.92 245.5,237.5C 246.234,236.292 246.567,234.959 246.5,233.5C 247.833,233.5 249.167,233.5 250.5,233.5 Z"/></g>
<g><path style="opacity:0.451" fill="#efcfba" d="M 171.5,235.5 C 173.027,235.427 174.027,236.094 174.5,237.5C 172.973,237.573 171.973,236.906 171.5,235.5 Z"/></g>
<g><path style="opacity:0.227" fill="#f2e1d5" d="M 174.5,237.5 C 176.027,237.427 177.027,238.094 177.5,239.5C 175.973,239.573 174.973,238.906 174.5,237.5 Z"/></g>
<g><path style="opacity:0.012" fill="#f7e0d7" d="M 243.5,238.5 C 243.027,239.906 242.027,240.573 240.5,240.5C 240.5,240.167 240.5,239.833 240.5,239.5C 241.391,238.89 242.391,238.557 243.5,238.5 Z"/></g>
<g><path style="opacity:0.024" fill="#fdf8d0" d="M 34.5,239.5 C 36.5,240.833 38.1667,242.5 39.5,244.5C 36.8333,243.833 35.1667,242.167 34.5,239.5 Z"/></g>
<g><path style="opacity:0.114" fill="#f2dacb" d="M 181.5,241.5 C 184.649,241.415 187.316,242.415 189.5,244.5C 186.557,244.02 183.89,243.02 181.5,241.5 Z"/></g>
<g><path style="opacity:0.145" fill="#f4dbd0" d="M 235.5,241.5 C 236.5,241.5 237.5,241.5 238.5,241.5C 236.208,243.267 233.542,244.267 230.5,244.5C 230.5,244.167 230.5,243.833 230.5,243.5C 232.403,243.204 234.07,242.537 235.5,241.5 Z"/></g>
<g><path style="opacity:1" fill="#fced38" d="M 117.5,238.5 C 120.663,253.961 122.663,269.627 123.5,285.5C 121.167,285.5 118.833,285.5 116.5,285.5C 116.167,285.5 115.833,285.5 115.5,285.5C 113.82,283.473 112.653,281.139 112,278.5C 110.834,266.516 109.834,254.516 109,242.5C 108.263,238.953 106.43,236.12 103.5,234C 100.167,234 96.8333,234 93.5,234C 92.5939,232.301 92.2606,230.467 92.5,228.5C 91.5,228.5 90.5,228.5 89.5,228.5C 89.2257,232.948 86.8923,235.781 82.5,237C 74.1667,237.667 65.8333,237.667 57.5,237C 56.7734,235.601 56.2734,234.101 56,232.5C 55.2753,231.941 54.4419,231.608 53.5,231.5C 51.8641,233.105 50.0308,234.439 48,235.5C 45.7298,234.14 43.2298,233.473 40.5,233.5C 40.3354,236.518 40.502,239.518 41,242.5C 43.8379,243.343 45.6713,245.177 46.5,248C 47.448,248.483 48.448,248.649 49.5,248.5C 49.178,246.278 49.8446,244.444 51.5,243C 66.8645,242.684 82.0312,240.85 97,237.5C 100.63,236.981 103.296,238.315 105,241.5C 105.769,254.825 106.269,268.159 106.5,281.5C 105.432,282.434 104.099,282.768 102.5,282.5C 99.1008,279.803 95.1008,278.47 90.5,278.5C 88.8243,276.166 86.491,275.166 83.5,275.5C 81.847,275.34 80.5137,274.674 79.5,273.5C 79.0269,272.094 78.0269,271.427 76.5,271.5C 74.847,271.34 73.5137,270.674 72.5,269.5C 72.0269,268.094 71.0269,267.427 69.5,267.5C 69.0269,266.094 68.0269,265.427 66.5,265.5C 66.0269,264.094 65.0269,263.427 63.5,263.5C 62.7377,261.738 61.4044,260.738 59.5,260.5C 59.0269,259.094 58.0269,258.427 56.5,258.5C 55.4154,256.413 53.7488,255.08 51.5,254.5C 50.4154,252.413 48.7488,251.08 46.5,250.5C 45.4154,248.413 43.7488,247.08 41.5,246.5C 40.5,246.167 39.8333,245.5 39.5,244.5C 38.1667,242.5 36.5,240.833 34.5,239.5C 32.1782,238.198 30.8449,236.198 30.5,233.5C 37.0901,230.872 43.4235,227.705 49.5,224C 52.8333,223.333 56.1667,223.333 59.5,224C 61.1558,225.829 63.1558,227.163 65.5,228C 74.36,229.491 81.86,226.991 88,220.5C 95.2482,222.879 102.415,225.379 109.5,228C 113.879,230.211 116.546,233.711 117.5,238.5 Z"/></g>
<g><path style="opacity:0.796" fill="#f1cdb7" d="M 189.5,244.5 C 192.781,244.42 195.781,245.087 198.5,246.5C 195.219,246.58 192.219,245.913 189.5,244.5 Z"/></g>
<g><path style="opacity:0.757" fill="#fbf7c0" d="M 41.5,246.5 C 43.7488,247.08 45.4154,248.413 46.5,250.5C 44.2512,249.92 42.5846,248.587 41.5,246.5 Z"/></g>
<g><path style="opacity:1" fill="#799c73" d="M 181.5,247.5 C 183.553,247.402 185.22,248.069 186.5,249.5C 184.219,249.923 182.552,249.256 181.5,247.5 Z"/></g>
<g><path style="opacity:0.196" fill="#d7ded7" d="M 234.5,249.5 C 235.568,248.566 236.901,248.232 238.5,248.5C 238.737,249.791 238.404,250.791 237.5,251.5C 237.179,249.952 236.179,249.285 234.5,249.5 Z"/></g>
<g><path style="opacity:0.451" fill="#b3c4b3" d="M 187.5,249.5 C 193.922,251.027 200.255,252.36 206.5,253.5C 199.616,254.191 193.282,252.858 187.5,249.5 Z"/></g>
<g><path style="opacity:0.678" fill="#a4b8a3" d="M 233.5,249.5 C 229.761,251.102 225.761,252.102 221.5,252.5C 225.163,250.584 229.163,249.584 233.5,249.5 Z"/></g>
<g><path style="opacity:0.592" fill="#fdf4b8" d="M 46.5,250.5 C 48.7488,251.08 50.4154,252.413 51.5,254.5C 49.2512,253.92 47.5846,252.587 46.5,250.5 Z"/></g>
<g><path style="opacity:0.996" fill="#618c62" d="M 221.5,252.5 C 221.082,253.222 220.416,253.722 219.5,254C 214.98,254.814 210.646,254.647 206.5,253.5C 211.527,253.497 216.527,253.164 221.5,252.5 Z"/></g>
<g><path style="opacity:0.361" fill="#fdf6be" d="M 51.5,254.5 C 53.7488,255.08 55.4154,256.413 56.5,258.5C 54.2512,257.92 52.5846,256.587 51.5,254.5 Z"/></g>
<g><path style="opacity:1" fill="#6f996b" d="M 229.5,258.5 C 227.777,260.218 225.777,261.551 223.5,262.5C 224.301,260.958 224.634,259.292 224.5,257.5C 226.216,257.629 227.883,257.962 229.5,258.5 Z"/></g>
<g><path style="opacity:1" fill="#c1ce2a" d="M 115.5,285.5 C 113.236,284.781 110.903,284.448 108.5,284.5C 108.068,283.29 107.401,282.29 106.5,281.5C 106.269,268.159 105.769,254.825 105,241.5C 103.296,238.315 100.63,236.981 97,237.5C 82.0312,240.85 66.8645,242.684 51.5,243C 49.8446,244.444 49.178,246.278 49.5,248.5C 48.448,248.649 47.448,248.483 46.5,248C 45.6713,245.177 43.8379,243.343 41,242.5C 40.502,239.518 40.3354,236.518 40.5,233.5C 43.2298,233.473 45.7298,234.14 48,235.5C 50.0308,234.439 51.8641,233.105 53.5,231.5C 54.4419,231.608 55.2753,231.941 56,232.5C 56.2734,234.101 56.7734,235.601 57.5,237C 65.8333,237.667 74.1667,237.667 82.5,237C 86.8923,235.781 89.2257,232.948 89.5,228.5C 90.5,228.5 91.5,228.5 92.5,228.5C 92.2606,230.467 92.5939,232.301 93.5,234C 96.8333,234 100.167,234 103.5,234C 106.43,236.12 108.263,238.953 109,242.5C 109.834,254.516 110.834,266.516 112,278.5C 112.653,281.139 113.82,283.473 115.5,285.5 Z"/></g>
<g><path style="opacity:0.549" fill="#fbf7b6" d="M 56.5,258.5 C 58.0269,258.427 59.0269,259.094 59.5,260.5C 57.9731,260.573 56.9731,259.906 56.5,258.5 Z"/></g>
<g><path style="opacity:0.882" fill="#fcf3ae" d="M 59.5,260.5 C 61.4044,260.738 62.7377,261.738 63.5,263.5C 61.5956,263.262 60.2623,262.262 59.5,260.5 Z"/></g>
<g><path style="opacity:1" fill="#51844b" d="M 223.5,262.5 C 221.178,264.664 218.511,266.331 215.5,267.5C 215.167,267.5 214.833,267.5 214.5,267.5C 214.325,264.671 215.658,263.004 218.5,262.5C 217.975,261.808 217.308,261.308 216.5,261C 218.851,261.14 221.184,261.64 223.5,262.5 Z"/></g>
<g><path style="opacity:1" fill="#dde34a" d="M 117.5,238.5 C 117.833,238.5 118.167,238.5 118.5,238.5C 120.687,245.328 122.187,252.328 123,259.5C 123.028,268.635 123.861,277.635 125.5,286.5C 122.833,286.5 120.167,286.5 117.5,286.5C 117.167,286.5 116.833,286.5 116.5,286.5C 116.5,286.167 116.5,285.833 116.5,285.5C 118.833,285.5 121.167,285.5 123.5,285.5C 122.663,269.627 120.663,253.961 117.5,238.5 Z"/></g>
<g><path style="opacity:0.537" fill="#fcf7bc" d="M 63.5,263.5 C 65.0269,263.427 66.0269,264.094 66.5,265.5C 64.9731,265.573 63.9731,264.906 63.5,263.5 Z"/></g>
<g><path style="opacity:0.475" fill="#fbf7c1" d="M 66.5,265.5 C 68.0269,265.427 69.0269,266.094 69.5,267.5C 67.9731,267.573 66.9731,266.906 66.5,265.5 Z"/></g>
<g><path style="opacity:0.29" fill="#fef9d2" d="M 69.5,267.5 C 71.0269,267.427 72.0269,268.094 72.5,269.5C 70.9731,269.573 69.9731,268.906 69.5,267.5 Z"/></g>
<g><path style="opacity:0.004" fill="#e0e8e0" d="M 214.5,267.5 C 214.833,267.5 215.167,267.5 215.5,267.5C 215.027,268.906 214.027,269.573 212.5,269.5C 212.833,268.5 213.5,267.833 214.5,267.5 Z"/></g>
<g><path style="opacity:0.286" fill="#fdf9cd" d="M 76.5,271.5 C 78.0269,271.427 79.0269,272.094 79.5,273.5C 77.9731,273.573 76.9731,272.906 76.5,271.5 Z"/></g>
<g><path style="opacity:0.043" fill="#d5dfd5" d="M 206.5,272.5 C 205.486,273.674 204.153,274.34 202.5,274.5C 203.287,272.896 204.62,272.229 206.5,272.5 Z"/></g>
<g><path style="opacity:0.941" fill="#fdf5ab" d="M 83.5,275.5 C 86.491,275.166 88.8243,276.166 90.5,278.5C 87.8427,278.065 85.5093,277.065 83.5,275.5 Z"/></g>
<g><path style="opacity:1" fill="#fcf287" d="M 90.5,278.5 C 95.1008,278.47 99.1008,279.803 102.5,282.5C 98.233,281.744 94.233,280.411 90.5,278.5 Z"/></g>
<g><path style="opacity:1" fill="#749b70" d="M 197.5,276.5 C 189.637,280.342 181.303,283.009 172.5,284.5C 173.743,282.836 175.41,281.669 177.5,281C 183.909,278.645 190.576,277.145 197.5,276.5 Z"/></g>
<g><path style="opacity:0.984" fill="#f0f09c" d="M 106.5,281.5 C 107.401,282.29 108.068,283.29 108.5,284.5C 106.214,284.405 104.214,283.738 102.5,282.5C 104.099,282.768 105.432,282.434 106.5,281.5 Z"/></g>
<g><path style="opacity:0.51" fill="#ecedb6" d="M 108.5,284.5 C 110.903,284.448 113.236,284.781 115.5,285.5C 115.833,285.5 116.167,285.5 116.5,285.5C 116.5,285.833 116.5,286.167 116.5,286.5C 113.572,286.435 110.905,285.768 108.5,284.5 Z"/></g>
<g><path style="opacity:0.4" fill="#b1c4af" d="M 165.5,285.5 C 160.189,286.645 154.856,287.645 149.5,288.5C 144.833,288.5 140.167,288.5 135.5,288.5C 129.5,287.833 123.5,287.167 117.5,286.5C 120.167,286.5 122.833,286.5 125.5,286.5C 138.851,286.666 152.185,286.333 165.5,285.5 Z"/></g>
</svg>
